<svg xmlns="http://www.w3.org/2000/svg" width="1040" height="640">
  <path fill="#ccabe5" d="M0 0h1040v640H0Z" />
  <path fill="#9d5bd1" d="M0 0h1040v512H0Z" />
  <path fill="#6b2b9d" d="m0-1.06667 1040 257.78231v126.21769H0Z" />
  <path fill="#34164e" d="m0 1.07367 1040 127.99681V257.0667l-1040 .007Z" />
  <path fill="#000000" d="M0 0h1040v128H0Z" />
  <path fill="#FFF430"
    d="M551.81048 472.24569c61.44861-13.69113 107.48351-60.66957 120.10869-122.57048 2.39525-11.74379 3.87873-35.33764 2.62556-41.75755-.81555-4.17805-.81719-4.17549-3.365 5.29315-5.1936 19.30131-15.54462 37.75751-29.28392 52.21417-9.31397 9.80029-16.4807 15.42695-28.28017 22.20302-17.78672 10.21436-37.71 15.47424-58.60375 15.47178-56.85378-.006-103.81757-36.50029-117.94067-91.6468-2.45338-9.57972-2.79505-13.03245-2.81413-28.43829-.0183-14.7948.36195-19.08365 2.43382-27.447 10.00447-40.38468 36.67736-70.90827 75.36251-86.24241 4.8261-1.91298 8.77473-3.72729 8.77473-4.03179 0-1.02719-19.59802.81745-29.91061 2.81529-14.93238 2.89282-27.57341 7.20031-40.81908 13.90925-43.24629 21.90432-73.5117 62.01931-83.13719 110.19336-2.62514 13.13838-2.61269 42.91745.0235 56.12158 3.96637 19.86708 11.89299 40.15783 21.46285 54.94106 24.37893 37.65988 60.9368 61.88531 106.32227 70.45549 11.81675 2.23137 44.13996 1.39052 57.04063-1.48383z" />
  <path fill="#FFFFFF"
    d="M582.83265 373.96261c26.87773-7.93497 47.49181-24.9372 59.64649-49.19572 11.30172-22.55617 13.29293-49.53019 5.37365-72.79433-10.21006-29.99365-33.86377-52.63277-64.85627-62.07435-8.61527-2.62456-11.08665-2.90017-26.00583-2.90017-14.91918 0-17.39057.27561-26.00582 2.90017-31.11764 9.4797-54.605 31.95959-64.85627 62.07435-7.35831 21.61619-6.19816 47.01626 3.11673 68.23708 12.64949 28.81752 37.12293 48.39248 69.78425 55.81658 10.69101 2.43012 31.97868 1.42724 43.80307-2.06361z" />
</svg>