<?xml version="1.0" encoding="UTF-8"?>
<svg xmlns="http://www.w3.org/2000/svg" width="1575" height="945">
  <path fill="#8A1E04" d="M0 0h1575v945H0z" />
  <path fill="#C54E54" d="M0 0h1575v810H0z" />
  <path fill="#E4ACCF" d="M0 0h1575v675H0z" />
  <path fill="#EDEDEB" d="M0 0h1575v540H0z" />
  <path fill="#D063A6" d="M0 0h1575v405H0z" />
  <path fill="#B75592" d="M0 0h1575v270H0z" />
  <path fill="#A40061" d="M0 0h1575v135H0z" />
  <path fill="#F30943"
    d="M117.865 333.704c31.697-16.277 45.404-21.417-5.996-36.837 9.423-.857 64.25 17.99 81.383-2.57 14.563-10.28-55.683-23.13-59.967-33.41 13.707 8.567 73.673 35.123 84.81 11.137-1.713-8.567-10.28-24.843-40.263-33.41 8.567 3.427 26.557 1.713 33.41-5.14-2.57-7.71-35.98-28.27-39.407-54.827 11.137 15.42 24.844 41.977 41.977 47.117 0 0 5.14-12.85 23.986-17.99-17.133 0-34.266-10.28-36.836-18.847 11.993 19.704 54.826 9.424 72.816 25.7 0 0-3.426-11.136 8.567-25.7.857-3.426-6.853-9.423-2.57-11.136 1.713 1.713 1.713 7.71 6.853 6.853 11.137-4.283 21.417-18.846 14.564-32.553 5.14 2.57 5.996 14.563 6.853 21.416 6.853 0 18.846-.856 31.696 11.137 2.57-1.713 1.714-5.997 4.284-7.71 2.57 8.567 2.57 26.557 14.563 25.7 9.423 0 21.417-20.56 23.13-29.127-.857 19.704 10.28 17.134 13.707 17.99 8.566-.856 17.99-29.126 22.273-29.126-1.713 3.427-1.713 14.563-.857 20.56 9.423 1.713 33.41-9.424 38.55-14.563-.857 4.283-2.57 5.996-1.713 11.136 8.566 1.713 57.396-21.416 68.533-45.403-12.85-5.997-23.13-12.85-33.41-16.277-5.997 5.14-5.997 26.557-13.707 24.844 3.427-5.14 11.994-23.13 5.14-29.127-32.553-22.273-16.276 17.133-19.703 20.56 0-6.853-14.563-47.117-28.27-43.69-2.57 3.427-7.71-19.703-17.133 30.84.857-8.567 11.136-41.977-38.55-55.683-2.57 12.85 14.563 51.4 10.28 59.966-1.713-16.276-14.563-55.683-23.13-65.963-18.847-7.71-52.257-21.416-66.82-16.276-17.133 4.283 25.7 42.833 13.707 58.253 2.57-22.274-23.987-46.26-41.977-46.26-36.836 18.846-6.853 53.97-12.85 71.103-3.426-20.56-13.706-24.843-11.993-48.83-9.423 6.853-10.28 18.847-20.56 28.27-5.14 1.713-7.71-.857-12.85 0-8.566 9.423 7.71 29.127 4.283 36.837-5.996-12.85-5.996-31.697-20.559-33.41-11.994-7.71-36.837-1.714-55.684 11.136-21.416 5.997-41.976 64.25-41.119 71.96 1.713 10.28 19.703 11.993 20.559 22.273-7.71-4.283-10.28-12.85-22.273-11.993-4.283 9.423-6.853 16.277-7.71 29.983 12.85 8.567 29.127 16.277 33.41 29.127-11.993-4.283-18.847-22.273-34.266-17.133-19.704 55.683 4.283 45.403 6.853 53.113-6.853 2.57-13.707-4.284-16.277 0-15.42 28.27 2.57 28.27 4.284 33.41H70.749c-5.997 5.14-6.853 23.13-5.14 31.696 12.85-5.996 40.263-11.993 33.41-27.413 6.853 1.713 14.563 1.713 18.846-1.713" />
  <path fill="none" stroke="#000"
    d="M117.865 333.704c31.697-16.277 45.404-21.417-5.996-36.837 9.423-.857 64.25 17.99 81.383-2.57 14.563-10.28-55.683-23.13-59.967-33.41 13.707 8.567 73.673 35.123 84.81 11.137-1.713-8.567-10.28-24.843-40.263-33.41 8.567 3.427 26.557 1.713 33.41-5.14-2.57-7.71-35.98-28.27-39.407-54.827 11.137 15.42 24.844 41.977 41.977 47.117 0 0 5.14-12.85 23.986-17.99-17.133 0-34.266-10.28-36.836-18.847 11.993 19.704 54.826 9.424 72.816 25.7 0 0-3.426-11.136 8.567-25.7.857-3.426-6.853-9.423-2.57-11.136 1.713 1.713 1.713 7.71 6.853 6.853 11.137-4.283 21.417-18.846 14.564-32.553 5.14 2.57 5.996 14.563 6.853 21.416 6.853 0 18.846-.856 31.696 11.137 2.57-1.713 1.714-5.997 4.284-7.71 2.57 8.567 2.57 26.557 14.563 25.7 9.423 0 21.417-20.56 23.13-29.127-.857 19.704 10.28 17.134 13.707 17.99 8.566-.856 17.99-29.126 22.273-29.126-1.713 3.427-1.713 14.563-.857 20.56 9.423 1.713 33.41-9.424 38.55-14.563-.857 4.283-2.57 5.996-1.713 11.136 8.566 1.713 57.396-21.416 68.533-45.403-12.85-5.997-23.13-12.85-33.41-16.277-5.997 5.14-5.997 26.557-13.707 24.844 3.427-5.14 11.994-23.13 5.14-29.127-32.553-22.273-16.276 17.133-19.703 20.56 0-6.853-14.563-47.117-28.27-43.69-2.57 3.427-7.71-19.703-17.133 30.84.857-8.567 11.136-41.977-38.55-55.683-2.57 12.85 14.563 51.4 10.28 59.966-1.713-16.276-14.563-55.683-23.13-65.963-18.847-7.71-52.257-21.416-66.82-16.276-17.133 4.283 25.7 42.833 13.707 58.253 2.57-22.274-23.987-46.26-41.977-46.26-36.836 18.846-6.853 53.97-12.85 71.103-3.426-20.56-13.706-24.843-11.993-48.83-9.423 6.853-10.28 18.847-20.56 28.27-5.14 1.713-7.71-.857-12.85 0-8.566 9.423 7.71 29.127 4.283 36.837-5.996-12.85-5.996-31.697-20.559-33.41-11.994-7.71-36.837-1.714-55.684 11.136-21.416 5.997-41.976 64.25-41.119 71.96 1.713 10.28 19.703 11.993 20.559 22.273-7.71-4.283-10.28-12.85-22.273-11.993-4.283 9.423-6.853 16.277-7.71 29.983 12.85 8.567 29.127 16.277 33.41 29.127-11.993-4.283-18.847-22.273-34.266-17.133-19.704 55.683 4.283 45.403 6.853 53.113-6.853 2.57-13.707-4.284-16.277 0-15.42 28.27 2.57 28.27 4.284 33.41H70.749c-5.997 5.14-6.853 23.13-5.14 31.696 12.85-5.996 40.263-11.993 33.41-27.413 6.853 1.713 14.563 1.713 18.846-1.713" />
  <path fill="#EB1449"
    d="M453.488 191.877c-14.564 3.426-59.11 6.853-70.247 19.703 12.85 20.56 63.393 23.987 76.243 44.546-19.703-11.993-59.966-29.126-85.666-35.979-30.84-6.854-21.417 10.28-31.697 35.123 4.284 9.423 18.847 35.123 19.704 43.69-7.71-8.567-14.564-47.973-27.414-26.557-20.56 33.41 11.137 40.263 24.844 71.103-8.567-11.993-25.7-35.123-36.837-48.83l-7.71 12.85c-12.85-3.426-18.847-2.57-18.847-2.57 7.71 18.847 31.697 57.397 38.55 69.39-23.13-23.13-33.41-45.403-45.403-70.246-10.28 0-19.703-4.284-29.983-5.997-.857 21.417 8.566 35.123 8.566 50.543-7.709-23.13-12.849-72.816-58.253-56.54-12.85 26.557 5.997 77.957 6.854 100.23-8.567-24.843-7.71-59.966-18.847-81.383-14.563-.857-37.693-1.713-33.41 7.71-29.126 7.71-105.37 53.113-92.52 65.106 23.13 22.274 73.674 51.4 106.227 57.397 1.713-8.567 5.14-23.13 8.566-28.27 3.427 13.707 7.71 30.84 21.417 34.267 3.427-4.284-1.713-15.42-.857-22.274 11.994 14.564 44.547 31.697 67.677 20.56 2.57-8.566-6.854-20.56-1.714-26.556 3.427 23.13 56.54 24.843 60.824 4.283 1.713-9.423-7.71-15.42-7.71-21.417 7.71 8.567 11.136 19.704 23.986 18.847 28.27-1.713 9.424-41.12 4.284-56.54 6.853 13.707 15.42 34.267 25.699 44.547 7.71-1.714 11.137-12.85 6.854-22.274 24.843 17.134 27.413 3.427 17.99-30.839 0-.857-.857-1.714-.857-2.57 0 .856.857 1.713.857 2.57 2.57 6.853 11.993 23.129 17.99 25.699 22.273-9.423-9.424-47.116-13.707-53.969 9.423 7.71 20.56 32.553 35.123 35.98 2.57-1.714 2.57-15.42 4.284-17.99-5.14-33.41-38.55-54.827-51.4-76.244 20.56 18.847 41.12 58.254 67.676 71.96 8.567-11.136-7.71-41.12-12.85-49.686 7.71 3.426 20.56 23.13 29.984 23.986 9.423-5.14-4.284-29.983-10.28-38.55 4.283 1.714 16.276 14.564 23.129 12.85 2.57-11.993-12.849-26.556-16.276-35.979 4.283.856 17.99 14.563 23.986 14.563 5.997-24.843 16.277-53.97 14.564-112.223-8.567.856-52.257 33.41-63.393 35.98" />
  <path fill="none" stroke="#000"
    d="M453.488 191.877c-14.564 3.426-59.11 6.853-70.247 19.703 12.85 20.56 63.393 23.987 76.243 44.546-19.703-11.993-59.966-29.126-85.666-35.979-30.84-6.854-21.417 10.28-31.697 35.123 4.284 9.423 18.847 35.123 19.704 43.69-7.71-8.567-14.564-47.973-27.414-26.557-20.56 33.41 11.137 40.263 24.844 71.103-8.567-11.993-25.7-35.123-36.837-48.83l-7.71 12.85c-12.85-3.426-18.847-2.57-18.847-2.57 7.71 18.847 31.697 57.397 38.55 69.39-23.13-23.13-33.41-45.403-45.403-70.246-10.28 0-19.703-4.284-29.983-5.997-.857 21.417 8.566 35.123 8.566 50.543-7.709-23.13-12.849-72.816-58.253-56.54-12.85 26.557 5.997 77.957 6.854 100.23-8.567-24.843-7.71-59.966-18.847-81.383-14.563-.857-37.693-1.713-33.41 7.71-29.126 7.71-105.37 53.113-92.52 65.106 23.13 22.274 73.674 51.4 106.227 57.397 1.713-8.567 5.14-23.13 8.566-28.27 3.427 13.707 7.71 30.84 21.417 34.267 3.427-4.284-1.713-15.42-.857-22.274 11.994 14.564 44.547 31.697 67.677 20.56 2.57-8.566-6.854-20.56-1.714-26.556 3.427 23.13 56.54 24.843 60.824 4.283 1.713-9.423-7.71-15.42-7.71-21.417 7.71 8.567 11.136 19.704 23.986 18.847 28.27-1.713 9.424-41.12 4.284-56.54 6.853 13.707 15.42 34.267 25.699 44.547 7.71-1.714 11.137-12.85 6.854-22.274 24.843 17.134 27.413 3.427 17.99-30.839 0-.857-.857-1.714-.857-2.57 0 .856.857 1.713.857 2.57 2.57 6.853 11.993 23.129 17.99 25.699 22.273-9.423-9.424-47.116-13.707-53.969 9.423 7.71 20.56 32.553 35.123 35.98 2.57-1.714 2.57-15.42 4.284-17.99-5.14-33.41-38.55-54.827-51.4-76.244 20.56 18.847 41.12 58.254 67.676 71.96 8.567-11.136-7.71-41.12-12.85-49.686 7.71 3.426 20.56 23.13 29.984 23.986 9.423-5.14-4.284-29.983-10.28-38.55 4.283 1.714 16.276 14.564 23.129 12.85 2.57-11.993-12.849-26.556-16.276-35.979 4.283.856 17.99 14.563 23.986 14.563 5.997-24.843 16.277-53.97 14.564-112.223-8.567.856-52.257 33.41-63.393 35.98" />
</svg>