<?xml version="1.0" encoding="UTF-8" standalone="no"?>
<!-- Created with Inkscape (http://www.inkscape.org/) -->

<svg
  xmlns:dc="http://purl.org/dc/elements/1.1/"
  xmlns:cc="http://creativecommons.org/ns#"
  xmlns:rdf="http://www.w3.org/1999/02/22-rdf-syntax-ns#"
  xmlns:svg="http://www.w3.org/2000/svg"
  xmlns="http://www.w3.org/2000/svg"
  xmlns:xlink="http://www.w3.org/1999/xlink"
  xmlns:sodipodi="http://sodipodi.sourceforge.net/DTD/sodipodi-0.dtd"
  xmlns:inkscape="http://www.inkscape.org/namespaces/inkscape"
  version="1.0"
  width="1280"
  height="800"
  id="Layer_1"
  xml:space="preserve"
  sodipodi:version="0.32"
  inkscape:version="0.91 r13725"
  sodipodi:docname="Gay_Pride_Flag_of_Poland ^mb.svg"
  inkscape:output_extension="org.inkscape.output.svg.inkscape"><metadata
     id="metadata220"><rdf:RDF><cc:Work
         rdf:about=""><dc:format>image/svg+xml</dc:format><dc:type
           rdf:resource="http://purl.org/dc/dcmitype/StillImage" /><dc:title></dc:title></cc:Work></rdf:RDF></metadata><sodipodi:namedview
     inkscape:window-height="705"
     inkscape:window-width="1366"
     inkscape:pageshadow="2"
     inkscape:pageopacity="0.0"
     guidetolerance="10.0"
     gridtolerance="10.0"
     objecttolerance="10.0"
     borderopacity="1.0"
     bordercolor="#666666"
     pagecolor="#ffffff"
     id="base"
     showgrid="false"
     inkscape:zoom="3.3808148"
     inkscape:cx="596.57564"
     inkscape:cy="817.4152"
     inkscape:window-x="-8"
     inkscape:window-y="-8"
     inkscape:current-layer="Layer_1"
     inkscape:window-maximized="1" /><defs
     id="defs2375"><inkscape:perspective
       sodipodi:type="inkscape:persp3d"
       inkscape:vp_x="0 : 400 : 1"
       inkscape:vp_y="0 : 1000 : 0"
       inkscape:vp_z="1280 : 400 : 1"
       inkscape:persp3d-origin="640 : 266.66667 : 1"
       id="perspective222" /><linearGradient
       x1="915.41553"
       y1="1266.3861"
       x2="1253.6213"
       y2="1533.9921"
       id="linearGradient3453"
       xlink:href="#linearGradient11336-1"
       gradientUnits="userSpaceOnUse"
       gradientTransform="matrix(1.0000015,0,0,1.0000015,-1823.3546,-1792.2077)" /><linearGradient
       id="linearGradient11336-1"><stop
         id="stop11338-7"
         style="stop-color:#c3bdc9;stop-opacity:1"
         offset="0" /><stop
         id="stop11340-4"
         style="stop-color:#c3bdc9;stop-opacity:0"
         offset="1" /></linearGradient><linearGradient
       x1="1895.5574"
       y1="1930.344"
       x2="871.34882"
       y2="1400.3666"
       id="linearGradient3450"
       xlink:href="#linearGradient11328-0"
       gradientUnits="userSpaceOnUse"
       gradientTransform="matrix(1.0000015,0,0,1.0000015,-1823.3546,-1792.2077)" /><linearGradient
       id="linearGradient11328-0"><stop
         id="stop11330-9"
         style="stop-color:#c3bdc9;stop-opacity:1"
         offset="0" /><stop
         id="stop11332-4"
         style="stop-color:#c3bdc9;stop-opacity:0"
         offset="1" /></linearGradient><linearGradient
       x1="2428.7358"
       y1="1135.0117"
       x2="1815.9109"
       y2="1603.801"
       id="linearGradient3436"
       xlink:href="#linearGradient14251-8"
       gradientUnits="userSpaceOnUse"
       gradientTransform="matrix(1.0000015,0,0,1.0000015,-1823.3546,-1792.2077)" /><linearGradient
       id="linearGradient14251-8"><stop
         id="stop14253-8"
         style="stop-color:#c3bdc9;stop-opacity:1"
         offset="0" /><stop
         id="stop14255-2"
         style="stop-color:#c3bdc9;stop-opacity:0"
         offset="1" /></linearGradient></defs><g
     id="g4859"><rect
       id="rect4744"
       style="fill:#ffffff;fill-opacity:1"
       y="0"
       x="0"
       height="800"
       width="1280" /><g
       id="g4622"><path
         style="fill:#750787;stroke-width:0.49825433"
         d="M 499.73047 41.46875 L 503.41016 304.49414 C 503.41016 304.49416 503.74182 328.16942 527.75977 343.89258 C 534.46921 348.28483 545.14293 351.75949 561.53516 351.53516 C 566.53177 351.46476 595.12274 351.31961 609.52344 351.7168 C 620.03747 352.0068 637.53953 359.29255 638.76758 371.51367 L 641.23633 371.51367 C 642.29367 357.36036 659.8055 352.02241 670.48047 351.7168 C 684.81197 351.30651 713.46823 351.4663 718.46484 351.53516 C 734.85707 351.76102 745.5308 348.28483 752.24023 343.89258 C 776.25819 328.16942 776.58984 304.49416 776.58984 304.49414 L 780.26953 41.46875 L 499.73047 41.46875 z "
         id="rect4292" /><path
         style="fill:#004dff;stroke-width:0.49825433"
         d="M 499.73047 41.46875 L 503.41016 304.49414 C 503.41016 304.49416 503.74182 328.16942 527.75977 343.89258 C 534.46921 348.28483 545.14293 351.75949 561.53516 351.53516 C 566.53177 351.46476 595.12274 351.31961 609.52344 351.7168 C 620.03747 352.0068 637.53953 359.29255 638.76758 371.51367 L 641.23633 371.51367 C 642.29367 357.36036 659.8055 352.02241 670.48047 351.7168 C 684.81197 351.30651 713.46823 351.4663 718.46484 351.53516 C 724.14859 351.61347 729.12967 351.23879 733.51172 350.54297 L 733.51172 41.46875 L 499.73047 41.46875 z "
         id="rect4294" /><path
         style="fill:#008026;stroke-width:0.49825433"
         d="M 499.73047 41.46875 L 503.41016 304.49414 C 503.41016 304.49416 503.74182 328.16942 527.75977 343.89258 C 534.46921 348.28483 545.14293 351.75949 561.53516 351.53516 C 566.53177 351.46476 595.12274 351.31961 609.52344 351.7168 C 620.03747 352.0068 637.53953 359.29255 638.76758 371.51367 L 641.23633 371.51367 C 642.29367 357.36036 659.8055 352.02241 670.48047 351.7168 C 674.90306 351.59018 680.72135 351.52958 686.75586 351.49219 L 686.75586 41.46875 L 499.73047 41.46875 z "
         id="rect4296" /><path
         style="fill:#ffed00;stroke-width:0.49825433"
         d="M 499.73047 41.46875 L 503.41016 304.49414 C 503.41016 304.49416 503.74182 328.16942 527.75977 343.89258 C 534.46921 348.28483 545.14293 351.75949 561.53516 351.53516 C 566.53177 351.46476 595.12274 351.31961 609.52344 351.7168 C 620.03747 352.0068 637.53953 359.29255 638.76758 371.51367 L 640 371.51367 L 640 41.46875 L 499.73047 41.46875 z "
         id="rect4298" /><path
         style="fill:#ff8c00;stroke-width:0.49825433"
         d="M 499.73047 41.46875 L 503.41016 304.49414 C 503.41016 304.49416 503.74182 328.16942 527.75977 343.89258 C 534.46921 348.28483 545.14293 351.75949 561.53516 351.53516 C 564.99198 351.48645 579.71307 351.41217 593.24414 351.49609 L 593.24414 41.46875 L 499.73047 41.46875 z "
         id="rect4300" /><path
         style="fill:#e40303;stroke-width:0.49825433"
         d="m 497.73047,41.46875 3.67969,263.02539 c 0,2e-5 0.33166,23.67528 24.34961,39.39844 4.38304,2.86931 10.4725,5.33749 18.72851,6.64844 V 41.46875 Z"
         id="rect4302"
         inkscape:connector-curvature="0" /><path
         inkscape:connector-curvature="0"
         d="m 616.96178,58.923394 c 4.57159,7.980076 6.40497,15.531801 8.93174,22.744221 4.18511,-0.568504 8.97328,6.569437 13.71485,6.902658 5.41321,1.061606 9.69463,-4.47884 13.71486,-5.096712 2.46775,-11.365032 4.6042,-17.042737 9.51744,-25.038126 -2.18013,1.482584 -6.81982,2.088519 -8.6389,4.782945 -2.72655,-2.425487 -4.88915,-0.907223 -6.24733,1.659556 0.46207,-2.048753 -0.14879,-3.78546 -2.83084,-3.953407 1.58993,-2.981006 -0.85824,-4.459531 -3.4165,-3.123949 -0.0711,-2.596277 -2.14606,-2.617896 -2.29395,-4.002278 -0.34437,1.60342 -2.16309,0.810228 -1.90351,4.68595 -2.07088,-1.664121 -4.09437,-0.579882 -3.31887,2.342651 -2.51277,-0.01128 -3.2143,2.057901 -2.97727,4.636556 -1.72327,-3.998254 -4.96045,-2.777281 -6.10089,-1.366768 -2.02075,-3.981235 -3.5475,-1.467218 -8.15083,-5.173297 z"
         id="path3360"
         style="fill:#ffffff;fill-opacity:1;fill-rule:evenodd;stroke:#ffffff;stroke-width:0.5;stroke-miterlimit:4;stroke-dasharray:none"
         sodipodi:nodetypes="ccccccccccccccc" /><path
         inkscape:connector-curvature="0"
         d="m 657.28364,79.263046 c -2.91201,5.004843 -4.15952,5.352595 -16.92917,3.388953 -10.09986,-1.007655 -19.19851,-3.859823 -19.61609,5.293545 3.34085,0.396632 8.20016,0.759181 10.31642,7.899531 l -6.18058,5.273715 c -4.3657,0.68711 -11.25099,6.52818 -15.79945,1.0967 -1.24838,5.10749 3.44051,6.54464 8.33274,6.33984 3.42801,-0.35182 4.52265,-1.27207 10.92251,-2.53728 l 1.69596,1.82411 c 9.66603,0.79994 14.67183,14.6245 -1.00482,22.73565 -0.60714,1.87743 0.39462,4.1299 1.88474,4.3966 -4.55757,6.44644 -12.03638,14.48892 -14.71972,9.18229 -0.62497,0.58726 -2.38567,4.97362 1.02703,7.39739 -2.5927,3.19262 -3.59456,6.97018 -3.45577,11.33323 -10.33285,-1.61416 -17.13878,-3.36562 -14.82242,-13.02907 10.99403,0.50779 13.97312,-12.76924 12.35756,-19.49942 -6.38877,-26.8832 -41.06827,-48.444401 -66.30943,-49.147411 1.40409,7.314585 5.91691,12.592231 11.05574,17.4597 -6.69358,-3.2584 -14.46142,-6.417497 -22.59722,-4.760801 0.94029,5.778129 4.0732,12.480472 17.25672,23.413702 -9.50224,-5.6425 -18.26672,-11.15108 -21.35369,-15.63844 -1.37147,1.85023 -2.14444,9.386 5.96782,14.88611 -2.57613,-1.02749 -15.30827,-0.93615 -19.15808,1.88482 2.32585,5.29246 12.9511,14.54289 21.67012,17.39506 -8.26748,-1.20228 -16.01706,-4.53389 -23.11351,-10.55027 -1.04832,0.94066 0.0403,10.73467 8.85458,14.63364 -2.85485,0.19005 -12.59341,2.92191 -15.10829,6.05948 5.08099,6.78293 18.07299,12.75791 24.52911,12.78232 -8.80647,1.14839 -18.42376,-0.6224 -22.42234,-1.88195 0.0888,2.25075 -1.80478,11.29007 22.29744,9.7979 -8.59893,4.06296 -21.57739,12.52077 -23.64921,19.97714 8.35406,3.6987 23.33493,0.65081 31.08262,-1.77924 -22.91075,13.96409 -26.48599,15.39901 -30.73565,14.46172 5.54721,11.72809 18.91422,3.8042 30.46362,-2.76484 -14.1987,18.99784 -16.5074,28.68292 -16.2047,42.14377 11.43428,-1.37587 27.98592,-17.75475 36.80617,-31.71832 -10.22096,21.02395 -16.30461,37.92538 -27.4492,42.89895 12.69703,5.03032 23.5872,-10.90375 31.23808,-27.80403 -2.93032,10.6978 -4.14247,33.37446 -0.3997,38.92109 11.47926,-7.7775 20.17493,-25.04605 26.00303,-44.84448 -1.98797,9.756 -3.45916,19.51079 -7.0337,29.26675 7.37893,1.40363 11.15067,-11.83704 13.63994,-19.59362 0.2298,0.40628 0.50354,0.74837 1.21577,1.40994 9.32224,-6.76304 12.2885,-22.46226 12.94323,-28.60913 8.49965,2.41531 12.23957,-0.6672 14.41714,-2.24852 1.86156,2.57817 1.9798,6.59969 2.50371,7.15002 -9.24479,-7.50914 -19.16043,0.017 -19.56611,12.5242 -1.00166,5.21923 -3.79051,11.25607 -10.76985,15.92722 0.43626,0.56792 1.41136,0.79827 2.67579,0.77445 -1.21592,2.09188 -2.3189,3.90011 -4.38008,5.79572 0.53272,0.3086 1.19868,0.35063 1.8292,0.46351 -1.55128,2.59119 -4.14089,5.03771 -6.72837,6.28423 0.62086,0.59514 0.97412,0.7949 2.85621,1.30492 -1.72431,2.2899 -4.53807,4.35575 -7.1919,5.47064 5.06371,3.00758 8.9323,3.3934 12.07165,3.10635 0.006,-8.9e-4 0.0111,0 0.0166,0 -2.00342,3.96305 -5.23457,5.96985 -8.39101,7.74972 0.98189,0.92197 2.16299,1.12169 3.1449,0.84652 -2.8533,2.9645 -5.86743,5.29977 -8.58811,6.14293 0.49545,0.37101 0.84269,0.8811 2.5953,0.74946 -1.94723,2.40284 -4.3091,4.74944 -8.48818,5.83999 0.8269,1.59033 2.52664,1.34637 3.99427,1.39913 -1.14145,2.45726 -4.71636,3.28223 -8.3355,4.04422 2.7274,0.77101 4.58185,2.236 2.95891,1.85418 -1.10092,1.32705 -2.18131,2.01416 -4.54108,2.36763 -2.42476,0.36308 -11.10455,-2.76312 -14.60312,-1.55746 -0.99049,-1.97215 -3.38732,-3.33105 -5.91508,-3.33105 -3.22982,0 -6.40452,2.05903 -6.5535,4.93556 -0.50027,-0.34661 -2.608,-0.62406 -2.28721,1.8763 0.76053,1.47236 0.79759,2.65416 5.44599,4.44421 0.75721,0.33707 1.67869,0.51352 2.79516,0.46642 1.65569,-0.0698 3.50801,-0.90156 4.8936,-2.10442 l -0.0277,0.0499 c 2.31445,0.42835 4.86275,0.81645 6.27038,1.40479 -3.66185,0.29219 -4.92123,2.31317 -7.00871,3.76677 -0.87886,-0.0442 -1.60563,-0.26156 -2.40102,-0.38863 l 0.025,0.0278 c -0.47719,-0.1202 -0.95914,-0.17301 -1.4295,-0.14755 -2.61418,0.14137 -5.2495,3.08767 -5.53203,6.42608 -0.0573,0.67689 0.11011,1.3237 0.43856,1.91545 l -0.0389,0.56852 c -0.76258,0.94123 -0.46052,1.68962 0.28313,2.23199 3.19135,1.26751 5.09488,0.48796 6.24262,0.25532 2.89568,-0.35117 5.31829,-2.73812 5.31829,-5.39339 0,-0.006 3e-5,-0.0124 0,-0.0193 l 0.061,0.0664 c 3.42554,-0.71145 6.80313,-1.66293 8.67972,-3.0445 0.0966,0.20822 0.15306,0.43519 0.11104,0.71321 -1.19191,0.70638 -3.15224,1.82806 -4.18858,5.28503 -0.30927,-0.0289 -0.60399,-0.0442 -0.88269,-0.0442 -3.91806,-0.006 -4.88517,2.69955 -4.81588,4.91001 0.0675,2.15489 0.85067,3.54328 1.96798,4.38015 -0.23709,1.3418 -0.0726,2.46348 1.3157,2.91174 4.67748,0.73362 5.80251,-1.68626 6.74225,-1.62663 -0.0521,-0.61504 0.0737,-1.05139 0.24704,-1.44058 1.43465,-0.66609 2.40769,-1.2108 2.54257,-3.90579 0.12303,-1.67372 -0.16184,-2.69841 -0.7106,-3.3526 l 0.12492,0.0357 c 8.8e-4,0.005 0.002,0.009 0.003,0.0139 0.004,-0.005 0.009,-0.008 0.0139,-0.0108 l 0.0389,0.0108 -0.006,-0.0392 c 4.28389,-3.65731 7.02693,-6.54463 8.87678,-8.98491 1.64846,0.37901 5.3453,0.29219 7.16416,-0.31661 l -0.0722,0.65533 c -1.71607,1.63292 -0.54963,5.5319 1.7154,5.44563 -0.0975,0.36651 -0.0797,0.6973 0,1.06328 1.46994,0.90665 4.18637,0.27002 6.25926,0.73301 1.06295,-0.12484 1.56785,-0.83916 1.29904,-2.29556 l -0.0361,-0.0221 c 1.66285,-0.98497 2.77839,-2.7614 2.56477,-5.00764 0,-3.10407 -2.42371,-5.58351 -5.41269,-5.77921 l 0.0167,-0.0139 c -3.19908,-0.34552 -6.26866,1.96199 -5.59867,-3.0201 8.75726,-10.37039 20.71207,-26.03663 23.97954,-27.94018 -0.26082,-0.3393 -0.43664,-0.78525 -0.58567,-1.21868 1.29733,3.43486 6.20491,7.05637 11.36661,6.74485 -0.9292,-1.76848 -1.9607,-3.33949 -2.32885,-8.06631 0.77159,1.11546 2.08788,1.63857 3.69728,1.96826 -2.41305,-11.04218 1.18735,-20.12639 8.602,-28.42929 -0.58869,10.68415 -1.93828,21.43528 -8.42435,32.32599 3.33747,1.04509 7.69901,-2.35689 8.29942,-4.3773 0.70982,9.62037 -8.40566,22.00322 -15.53575,16.06624 -4.476,9.8411 6.13953,14.61661 12.83498,8.90433 -1.13178,5.95344 -5.78414,9.45299 -10.85589,10.81977 -5.07176,1.3668 -10.35604,-0.78804 -6.98373,-8.90712 -0.71483,-0.42269 -10.88816,-0.68031 -11.17509,10.41178 0.30333,6.40905 4.6311,8.82093 5.02131,8.93216 -14.50607,11.00469 0.10845,23.26956 12.07719,20.88718 9.49092,-1.46436 14.88448,-9.15452 18.3226,-14.73065 -1.03953,4.01187 -5.33126,16.89348 5.60419,30.84397 10.83469,-16.9207 6.2519,-28.32086 5.99002,-30.13023 8.51691,13.12728 16.91455,14.0731 21.87831,13.74797 8.48431,0.13611 20.49628,-13.1965 5.22392,-21.72576 7.81555,-3.7208 8.3311,-19.17828 -2.67858,-19.97149 2.26769,6.12482 -2.51792,9.82631 -7.79703,9.34858 -5.27912,-0.47718 -10.14438,-3.52111 -12.01613,-10.37834 10.39372,4.99854 15.21772,-4.83514 11.68028,-10.17298 -8.87012,7.3344 -13.06528,-4.43112 -14.25615,-11.4331 2.26579,1.72483 4.22684,2.32398 8.0385,1.75999 -7.21547,-9.27877 -8.90025,-21.72518 -9.54572,-33.41418 4.91086,7.80819 9.75902,17.365 9.60124,26.72715 1.13641,-0.5577 2.16943,-0.70921 4.21633,-4.80734 0.1845,7.00253 -0.6146,7.95058 -2.9839,10.88048 3.87973,1.63063 8.97506,-1.50579 11.39991,-5.66805 0.008,-0.0108 0.0139,-0.0221 0.0222,-0.0329 7.53833,10.17692 15.67535,20.62333 23.59094,28.70104 1.71659,1.79176 2.31063,3.58351 -0.86883,4.21328 -10.17287,-3.75488 -11.24011,6.88279 -7.0198,8.32165 -0.333,0.96164 -0.42628,1.95856 -0.13597,3.00872 2.00174,0.61733 6.09316,-1.04165 7.18914,-1.10184 0.5095,-0.45955 0.5141,-1.4224 0.49963,-2.40621 1.02123,-0.0505 1.71977,-0.58605 2.20672,-1.43824 1.98367,0.38068 3.90807,0.63487 6.41749,-1.43777 l 7.52223,7.55572 c 0.39038,0.22469 -0.39849,1.0315 0.66619,1.13529 -0.83624,5.01786 1.07198,5.58802 2.7091,6.85329 -0.33575,4.8005 6.84861,2.03285 7.55275,2.30637 0.76089,-0.44881 0.82575,-0.96736 0.70228,-1.50415 0.8351,-0.87602 0.44429,-1.32082 0.16929,-1.94037 3.59932,-5.48651 -1.50559,-9.66974 -4.31347,-9.19029 -2.98702,-3.27829 -5.14054,-4.6564 -7.55277,-6.62008 4.93624,1.86268 12.55207,3.96877 14.73913,5.58179 0.83253,5.59883 5.74208,3.28567 9.35977,3.47801 1.12413,-1.57901 0.52036,-2.06864 0,-2.60936 4.76132,-6.14178 -5.28401,-11.1812 -9.55961,-7.55281 -2.53659,-2.34043 -4.73246,-2.74952 -7.01984,-3.67773 0.95472,-0.95997 2.97648,-1.7095 7.52223,-2.00397 2.039,1.35038 4.07594,1.82524 6.11494,0.33305 0.87683,1.92055 2.62233,1.4224 3.24206,1.06892 1.49145,-1.71967 1.5334,-4.33075 1.94023,-6.71764 -0.40675,-0.8647 -1.05529,-1.42864 -2.1734,-1.40429 -3.08762,-5.28164 -9.05136,-2.07029 -9.39306,0.29964 -5.14051,0.42097 -9.71193,1.07681 -15.14161,3.24473 -1.7909,0.53959 -3.49495,-1.39798 -5.01297,-2.50888 1.3742,-0.54923 2.57254,-1.17557 2.53979,-2.34042 -2.1988,-0.2156 -4.3457,-0.0618 -6.88659,-2.67287 l 0.66896,-1.80427 c -1.9612,-0.60079 -4.06953,-2.02949 -6.65066,-6.08445 0.54133,-0.32228 1.05207,-0.85899 1.50445,-1.80429 -2.93381,-0.67796 -5.33558,-2.23085 -7.28907,-4.51286 0.69923,-0.34267 1.36339,-0.93845 1.97355,-1.90464 -2.73647,-1.65161 -5.37036,-3.08876 -10.61439,-9.92274 -0.0198,-0.0335 -0.0394,-0.0703 -0.0583,-0.0998 5.52239,0.92197 11.29025,0.37788 14.70302,-2.10441 -2.71387,-0.75627 -7.50312,-2.33529 -9.64011,-6.46743 1.05975,-0.0862 1.64226,-0.29333 2.30109,-0.48002 -4.1416,-2.73413 -5.2384,-4.21271 -6.28981,-6.42888 0.87159,0.0875 2.11788,-0.30866 2.53424,-0.91574 -2.67056,-1.20114 -3.84145,-2.8635 -4.79368,-4.67457 1.09757,0.0227 2.25196,0.23657 3.13935,-0.44138 -10.54985,-4.75854 -9.08298,-29.42558 -20.4071,-29.50051 -5.04009,0.41251 -5.9555,1.50471 -8.55479,2.83176 0.76226,-2.11001 2.05359,-4.08788 3.40025,-6.05159 6.1851,2.88904 11.08717,1.2607 12.74893,-0.18833 0.84473,9.91363 4.02392,20.5513 10.90585,25.87491 1.17955,-0.66435 2.59657,-1.51824 3.46134,-2.47258 1.22734,9.20956 4.66646,21.31444 12.38807,20.30965 -3.55843,-8.86746 -3.50164,-17.77802 -3.89434,-26.63867 3.23717,26.00318 11.21788,41.16904 17.81464,45.71649 3.03924,-4.0153 5.30458,-22.99555 3.8305,-34.39399 6.48594,11.74002 13.68426,22.61143 19.71879,22.55238 2.73382,-0.0272 5.76961,-2.26493 7.60272,-2.83114 -9.45868,-3.81673 -15.88016,-21.23218 -21.68957,-32.07638 10.90059,17.06936 23.83933,24.7578 29.94181,25.91413 0.21862,-5.27879 1.38721,-20.04802 -12.18545,-40.51143 24.25588,12.84076 29.40961,4.54802 30.83004,0.12484 -10.94584,3.81444 -25.70835,-10.25522 -35.59598,-14.72785 l -0.13318,-0.39148 c 14.46728,6.60249 28.663,8.8782 37.49735,3.31121 -7.55162,-11.65269 -14.86492,-15.89778 -22.81374,-18.89175 15.70578,1.7435 20.85459,-3.59942 21.17884,-9.44848 -5.73161,1.93705 -11.03396,2.23942 -17.86739,1.14665 15.0305,-3.0286 17.74082,-9.40526 17.59258,-10.04297 -3.84992,-2.99118 -11.12001,-6.35968 -17.68696,-6.97813 18.12242,-6.51172 12.3619,-12.6507 11.68862,-14.57804 -5.63533,5.28222 -15.45723,9.05071 -17.19289,8.89352 8.4594,-4.41129 15.79479,-15.9522 15.31928,-17.25656 -4.22598,-2.17473 -12.97853,-2.06806 -16.49619,-1.00479 3.51957,-3.86154 8.14087,-10.47089 3.8777,-15.96871 -4.10013,5.79516 -7.99913,8.87712 -11.894,11.9023 3.53458,-4.47086 7.64006,-9.59989 9.0461,-20.099128 -5.2929,0.693336 -10.09023,0.174236 -16.95971,4.71035 3.94174,-4.924236 6.36765,-9.770104 6.84773,-15.638451 -23.67298,1.66127 -51.34388,14.071955 -64.69673,45.014079 -3.87563,9.08986 -0.85168,24.56094 11.33054,22.79697 1.9217,7.80648 -3.2434,12.57695 -14.46712,12.23251 -0.23741,-2.6133 0.58136,-7.79109 -2.63693,-10.51734 2.72633,-0.17646 3.26027,-1.57897 3.83051,-2.76994 -7.3259,-1.69074 -6.13944,-4.12189 -4.77426,-17.13742 0.96333,0.4 2.0619,0.16851 2.89509,-0.60251 -3.02721,-2.7909 -2.02645,-7.95344 -0.49964,-24.21824 0.30664,-7.08873 -1.1534,-10.6371 -2.70911,-11.860356 0.93787,-0.476012 1.55243,-1.246527 1.06865,-3.014447 3.38845,-0.595134 1.9533,-4.730184 0.55794,-6.070847 -0.68032,1.843376 -3.5842,2.523691 -6.33701,0.480543 3.32822,-1.517119 3.35839,-5.291831 0.81607,-7.913716 z M 586.17499,297.15513 c -1.8e-4,0.002 1.7e-4,0.003 0,0.006 l -0.006,-0.003 z m 64.18321,2.77844 c 2.35247,2.4692 11.42548,9.18177 21.95048,5.93699 0.87447,5.94828 -4.17895,8.18829 -8.16897,7.37527 -3.90006,-0.79434 -9.76533,-3.90637 -13.78151,-13.31226 z m -20.91233,1.52111 c -3.41505,6.49811 -9.07544,11.9925 -14.11462,13.31506 -5.03915,1.32254 -9.7344,-1.18297 -7.90526,-7.72475 10.8817,3.64307 19.72367,-2.80056 22.01988,-5.59031 z"
         id="path3358"
         style="fill:#ffffff;fill-rule:evenodd;stroke:#ffffff;stroke-width:0.5;stroke-miterlimit:4;stroke-dasharray:none"
         sodipodi:nodetypes="ccccccccccccccccccccccccccccccccccccccccccccccccccccccccccccccccccsccccccccccccccccsccccccccccccccccccccccccccccccccccccccccsccccccccccccccccccccccccccccccccccccccccccccccccccccccccccccccccccccccccccccccccccccccccccccccccccccccccccccccccccccccccccscc" /><path
         inkscape:connector-curvature="0"
         d="m 547.27595,306.80613 c 2.62664,1.21193 5.8743,0.38754 7.62766,-0.11634 0.9419,0.89705 -0.28957,4.42833 2.49816,7.00025 -1.59241,0.6967 -10.3103,-1.98409 -10.12582,-6.88393 z"
         id="path3413"
         style="fill:#ffffff;fill-opacity:1;fill-rule:evenodd;stroke:#ffffff;stroke-width:0.5;stroke-miterlimit:4;stroke-dasharray:none" /><path
         inkscape:connector-curvature="0"
         d="m 543.53049,287.98473 c 1.09059,3.48252 4.17514,3.85531 5.43375,4.57814 -0.0337,1.31574 -3.40775,1.25161 -3.52993,6.01466 -2.35803,-0.21275 -5.63953,-5.72304 -1.90382,-10.5928 z"
         id="path3415"
         style="fill:#ffffff;fill-opacity:1;fill-rule:evenodd;stroke:#ffffff;stroke-width:0.5;stroke-miterlimit:4;stroke-dasharray:none" /><path
         inkscape:connector-curvature="0"
         d="m 561.0592,316.76349 c 4.2512,0.71718 5.79108,-1.56364 6.74389,-1.69133 0.49456,1.39177 2.3945,3.20392 4.24044,4.15146 -0.8625,3.12167 -11.16883,2.4397 -10.98433,-2.46013 z"
         id="path3417"
         style="fill:#ffffff;fill-opacity:1;fill-rule:evenodd;stroke:#ffffff;stroke-width:0.5;stroke-miterlimit:4;stroke-dasharray:none" /><path
         inkscape:connector-curvature="0"
         d="m 593.84308,305.12217 c -0.24866,-0.53049 -5.13184,0.0607 -6.01403,-0.72621 -0.61228,0.75627 -0.79348,3.25103 -2.63944,4.19912 1.17856,2.13272 9.34084,1.42692 8.65347,-3.47291 z"
         id="path3419"
         style="fill:#ffffff;fill-opacity:1;fill-rule:evenodd;stroke:#ffffff;stroke-width:0.5;stroke-miterlimit:4;stroke-dasharray:none" /><path
         inkscape:connector-curvature="0"
         d="m 685.0425,302.14973 c 2.58586,0.63207 5.73412,-1.05818 7.24147,-1.08883 0.70292,1.38496 0.97555,2.89134 3.86577,3.86612 -1.90717,2.11797 -9.07694,2.81924 -11.10724,-2.77729 z"
         id="path3424"
         style="fill:#ffffff;fill-opacity:1;fill-rule:evenodd;stroke:#ffffff;stroke-width:0.5;stroke-miterlimit:4;stroke-dasharray:none" /><path
         inkscape:connector-curvature="0"
         d="m 713.92676,313.88354 c -0.9513,0.939 -2.00528,1.94037 -3.81133,3.02181 3.2335,2.94237 9.81185,-0.3614 9.5555,-3.21243 -0.58761,-1.12912 -2.48395,1.3083 -5.74417,0.19062 z"
         id="path3426"
         style="fill:#ffffff;fill-opacity:1;fill-rule:evenodd;stroke:#ffffff;stroke-width:0.5;stroke-miterlimit:4;stroke-dasharray:none" /><path
         inkscape:connector-curvature="0"
         d="m 726.53129,303.5659 c 0.0559,3.83141 -0.43763,4.83736 -0.87116,6.15195 1.8431,1.25503 6.60528,-1.72648 7.10536,-6.23368 -0.4991,-1.06949 -2.52272,0.79605 -6.2342,0.0817 z"
         id="path3428"
         style="fill:#ffffff;fill-opacity:1;fill-rule:evenodd;stroke:#ffffff;stroke-width:0.5;stroke-miterlimit:4;stroke-dasharray:none" /><path
         inkscape:connector-curvature="0"
         d="m 735.27006,282.38591 c -1.36929,0.34495 -0.55266,5.00139 -2.12343,6.47883 1.28855,0.71547 2.16113,2.42892 3.10347,3.97501 3.02204,-2.28882 2.91012,-8.80676 -0.98004,-10.45384 z"
         id="path3430"
         style="fill:#ffffff;fill-opacity:1;fill-rule:evenodd;stroke:#ffffff;stroke-width:0.5;stroke-miterlimit:4;stroke-dasharray:none" /><path
         inkscape:connector-curvature="0"
         d="m 613.99466,101.03762 c -7.80178,-15.008606 14.76885,-17.658701 17.05552,-5.240776 0,0 5.59784,0.225833 10.53959,2.852745 9.63022,6.987731 3.78036,10.985991 1.84016,10.664871 -4.48793,0.0783 -5.33085,-4.23148 -11.88097,-2.58553 -1.57503,0.58783 -1.65999,1.39692 -2.36371,1.37308 -3.90521,-0.99235 3.25573,-8.834549 10.94518,-3.1841 0.68563,0.5038 2.18317,-0.4806 0.86235,-1.95689 -5.1562,-5.204496 -14.0929,-2.34438 -16.05295,-1.85698 -2.49656,-4.048216 -8.01807,-3.121683 -10.94517,-0.0664 z"
         id="path3665"
         style="fill:#ffffff;fill-opacity:1;fill-rule:evenodd;stroke:#ffffff;stroke-width:0.5;stroke-miterlimit:4;stroke-dasharray:none" /></g><g
       transform="matrix(1.6473616,0,0,0.83333333,1.84e-5,400)"
       id="g4015"><rect
         style="fill:#750787"
         y="0"
         x="0"
         width="777"
         height="480"
         id="rect3989" /><rect
         style="fill:#004dff"
         y="0"
         x="0"
         width="777"
         height="400"
         id="rect3991" /><rect
         style="fill:#008026"
         y="0"
         x="0"
         width="777"
         height="320"
         id="rect3993" /><rect
         style="fill:#ffed00"
         y="0"
         x="0"
         width="777"
         height="240"
         id="rect3995" /><rect
         style="fill:#ff8c00"
         y="0"
         x="0"
         width="777"
         height="160"
         id="rect3997" /><rect
         style="fill:#e40303"
         y="0"
         x="0"
         width="777"
         height="80"
         id="rect3999" /></g></g><rect
     style="opacity:1;fill:#ffffff;fill-opacity:1;stroke:none;stroke-width:4;stroke-linecap:square;stroke-linejoin:miter;stroke-miterlimit:5;stroke-dasharray:none;stroke-dashoffset:0;stroke-opacity:1"
     id="rect4367"
     width="1.1697694"
     height="1.3454287"
     x="610.00763"
     y="259.66815" /></svg>