<?xml version="1.0" encoding="UTF-8" standalone="no"?>
<!-- Created with Inkscape (http://www.inkscape.org/) -->

<svg
   xmlns:dc="http://purl.org/dc/elements/1.1/"
   xmlns:cc="http://creativecommons.org/ns#"
   xmlns:rdf="http://www.w3.org/1999/02/22-rdf-syntax-ns#"
   xmlns:svg="http://www.w3.org/2000/svg"
   xmlns="http://www.w3.org/2000/svg"
   xmlns:sodipodi="http://sodipodi.sourceforge.net/DTD/sodipodi-0.dtd"
   xmlns:inkscape="http://www.inkscape.org/namespaces/inkscape"
   version="1.1"
   id="svg2"
   width="1600"
   height="960"
   viewBox="0 0 1600 960"
   sodipodi:docname="2017_Sapphic_Flag_plain.svg"
   inkscape:version="0.92.5 (2060ec1f9f, 2020-04-08)">
   <metadata
      id="metadata8">
      <rdf:RDF>
         <cc:Work
            rdf:about="">
            <dc:format>image/svg+xml</dc:format>
            <dc:type
               rdf:resource="http://purl.org/dc/dcmitype/StillImage" />
            <dc:title></dc:title>
         </cc:Work>
      </rdf:RDF>
   </metadata>
   <defs
      id="defs6" />
   <sodipodi:namedview
      pagecolor="#ffffff"
      bordercolor="#666666"
      borderopacity="1"
      objecttolerance="10"
      gridtolerance="10"
      guidetolerance="10"
      inkscape:pageopacity="0"
      inkscape:pageshadow="2"
      inkscape:window-width="2560"
      inkscape:window-height="1337"
      id="namedview4"
      showgrid="true"
      inkscape:lockguides="true"
      inkscape:snap-page="true"
      inkscape:zoom="0.62932503"
      inkscape:cx="1430.6251"
      inkscape:cy="675.90084"
      inkscape:window-x="1280"
      inkscape:window-y="0"
      inkscape:window-maximized="1"
      inkscape:current-layer="svg2">
      <inkscape:grid
         type="xygrid"
         id="grid839"
         spacingx="320"
         spacingy="320" />
   </sodipodi:namedview>
   <path
      style="fill:#fd8ba8;fill-rule:evenodd;stroke-width:2.23606801;fill-opacity:1"
      d="M 0 0 L 0 320 L 800 480 L 1600 320 L 1600 0 L 0 0 z M 800 480 L 0 640 L 0 960 L 1600 960 L 1600 640 L 800 480 z "
      id="rect841" />
   <rect
      style="fill:#fbf2ff;fill-rule:evenodd;fill-opacity:1"
      id="rect846"
      width="1600"
      height="320"
      x="0"
      y="320" />
   <path
      style="fill:#c76bc5;stroke-width:0.31999999;fill-opacity:1"
      d="m 733.81616,629.09562 c -9.14422,-0.88282 -21.27654,-4.89133 -27.55635,-9.10461 -4.65107,-3.12055 -9.18163,-8.49885 -11.53933,-13.69863 -6.74003,-14.86483 -5.52586,-36.35859 3.03984,-53.81238 3.06941,-6.25437 6.26634,-9.69165 13.49731,-14.51226 12.23024,-8.15334 35.7209,-17.567 60.64528,-24.30307 l 3.42291,-0.92505 3.45709,1.79878 c 5.98074,3.1119 10.67021,6.51587 15.59008,11.31645 l 2.6904,2.62515 -0.28067,4.64 c -2.16128,35.73155 -7.69878,60.44739 -16.5615,73.92 -2.40407,3.6545 -9.80989,11.05757 -13.66122,13.6561 -9.88285,6.66806 -21.03811,9.52963 -32.74384,8.39952 z"
      id="path837" />
   <path
      style="fill:#c76bc5;stroke-width:0.31999999;fill-opacity:1"
      d="m 856.40048,629.09862 c -8.11414,-0.78461 -15.88646,-3.62855 -22.96048,-8.40148 -3.85315,-2.59977 -11.24781,-9.99328 -13.70003,-13.69788 -8.77043,-13.2497 -14.36986,-38.28647 -16.52269,-73.87821 l -0.28067,-4.64 2.6904,-2.62515 c 4.91987,-4.80058 9.60934,-8.20455 15.59008,-11.31645 l 3.45709,-1.79879 3.42291,0.92506 c 14.3136,3.86838 31.37606,9.76 42.5983,14.70906 13.26282,5.84892 23.04605,12.13859 27.77411,17.85596 2.24906,2.71965 5.436,9.18957 7.25588,14.73031 5.34598,16.27625 5.18227,32.91977 -0.44586,45.33238 -2.3577,5.19978 -6.88826,10.57808 -11.53933,13.69863 -4.5728,3.06803 -14.31222,6.8136 -21.14614,8.13232 -6.22685,1.2016 -10.92131,1.48403 -16.19357,0.97424 z"
      id="path835" />
   <path
      style="fill:#c76bc5;stroke-width:0.31999999;fill-opacity:1"
      d="m 702.72,515.5049 c -12.31085,-0.58644 -22.75331,-2.51332 -27.688,-5.10909 -8.1273,-4.2752 -14.6592,-13.99347 -17.22019,-25.62039 -1.26077,-5.72396 -1.60547,-9.23904 -1.58237,-16.13542 0.0341,-10.18157 1.57306,-20.23046 4.45952,-29.12 3.39718,-10.4625 12.15005,-19.02643 22.51104,-22.02515 4.16003,-1.20403 7.38573,-1.60829 12.64,-1.5841 17.67536,0.0814 35.74637,8.58528 54.4,25.59962 8.84307,8.06595 19.11626,19.8896 25.52752,29.38022 2.06442,3.056 2.1687,3.30317 2.49341,5.90848 0.75667,6.07165 -0.91303,14.0553 -4.5176,21.60093 -2.07408,4.34179 -3.77802,6.87526 -5.30122,7.88214 -7.37881,4.87757 -24.22518,8.18548 -47.00211,9.22919 -7.69779,0.35273 -11.20493,0.35152 -18.72,-0.006 z"
      id="path833" />
   <path
      style="fill:#c76bc5;stroke-width:0.31999999;fill-opacity:1"
      d="m 877.75213,515.518 c -25.2745,-1.20887 -44.6409,-5.76784 -48.34173,-11.37997 -5.38429,-8.16496 -8.62432,-19.72208 -7.66778,-27.35069 0.37988,-3.02963 0.84567,-3.86445 6.06333,-10.86739 12.57111,-16.87245 27.64288,-31.01344 42.34723,-39.73197 17.6122,-10.44266 36.65549,-13.21552 50.44909,-7.34579 8.44058,3.59177 15.68336,11.55654 18.68922,20.55216 4.43533,13.27369 5.78646,31.68736 3.23414,44.07651 -1.40265,6.80874 -4.24499,13.45373 -7.7775,18.18266 -3.26848,4.37548 -7.61309,7.97248 -11.57306,9.58156 -2.40393,0.9768 -7.23891,2.20039 -11.17507,2.82807 -8.38326,1.33683 -23.38816,1.97424 -34.24787,1.45485 z"
      id="path831" />
   <circle
      style="fill:#f996c9;fill-rule:evenodd;stroke:none;stroke-width:0.05;stroke-miterlimit:4;stroke-dasharray:none;fill-opacity:1"
      id="path825"
      cx="800.14044"
      cy="495.73035"
      r="21.451553" />
   <path
      style="fill:#fff71e;stroke-width:0.31999999;fill-opacity:1"
      d="m 797.95018,508.46795 c -6.64791,-1.14 -11.64989,-8.09648 -10.45792,-14.54435 1.61609,-8.74228 10.57779,-13.32986 18.46134,-9.45056 4.77613,2.35024 7.6991,7.98595 6.85626,13.21942 -1.15088,7.14634 -7.82026,11.98262 -14.85968,10.77549 z"
      id="path829" />
   <path
      style="fill:#c76bc5;stroke-width:0.31999999;fill-opacity:1"
      d="m 795.84,466.87341 c -1.848,-0.1225 -3.97674,-0.32858 -4.73053,-0.45795 -3.19197,-0.54794 -11.66163,-7.24999 -21.02947,-16.64064 -18.05168,-18.09565 -30.84189,-37.9978 -35.20355,-54.77824 -2.04967,-7.88567 -2.4672,-16.12493 -1.14106,-22.51658 2.31991,-11.18134 9.07683,-20.4431 20.52669,-28.136 10.34666,-6.95168 21.45642,-11.15968 34.37792,-13.02115 4.93021,-0.71027 16.48826,-0.68928 22.08,0.0401 17.06378,2.22573 34.05059,10.16403 44.45741,20.77597 5.89453,6.01069 9.86566,13.55885 11.28822,21.45616 0.69248,3.84438 0.67907,11.1911 -0.0278,15.20496 -1.68429,9.56403 -5.63283,19.57898 -11.74653,29.7935 -9.89734,16.53607 -28.15856,36.60464 -41.33552,45.42666 -3.21881,2.15501 -4.12524,2.45805 -8.08195,2.70182 -1.58061,0.0974 -3.59382,0.22141 -4.47382,0.27562 -0.88,0.0542 -3.112,-0.003 -4.96,-0.12419 z"
      id="path823" />
</svg>