<svg id="Layer_1" data-name="Layer 1" xmlns="http://www.w3.org/2000/svg" viewBox="0 0 1500 1000">
  <rect fill="#91f291" x="0.01" y="0.02" width="1500.02" height="332.75" />
  <rect fill="#ffffff" x="0.01" y="332.76" width="1500.02" height="332.89" />
  <rect fill="#91f291" x="0.01" y="665.66" width="1500.02" height="334.39" />
  <path fill="#66023c"
    d="M876.69,459.93h0s18.88-25.29-2.25-44.28c-17.65-15.85-45.83-13.87-70.38,7.63,15-31,10-58.1-11.59-69.82-24.57-13.36-42,12-42.17,12.34h0s-17.47-25.8-42.18-12.37-27.68,47-3.77,83.58c1.18,1.81,2.36,3.59,3.53,5.37-1.3-1.61-2.62-3.22-3.94-4.84-27.56-33.89-60.45-41.27-80.76-21.79s-1.26,43.65-1,43.95h0s-29.88,8.82-24.58,36.45,36.4,40.65,78.48,29c7.32-2,14.49-4.08,21.35-6.07-6.53,2.29-13.27,4.69-20,7.15-41.62,15.06-59.83,44.07-48.2,70,11.57,25.76,41.11,15.77,41.47,15.65h0s-1.77,31.52,26.33,35.67c24.18,3.57,47.23-14.82,55.21-48.17,4.38,31.41,22,50.25,45.38,49.53,28.22-.87,30.24-32,30.27-32.38h0s28.46,13.66,43-10.75c13.85-23.24,2.31-55.45-33-75.54,35.67,4.49,60.73-9.42,64.82-34.3C907.2,468,877.05,460,876.69,459.93Z" />
  <path fill="#ffff00"
    d="M829.92,501.87l-10.82-1.06-54.39-5.35,38.14-45.4,7.46-8.89-8.88,7.5-45.26,38.26-4.56-58.61-1-13.28-.94,13.28-4.26,59.55-54.14-45.76,6.26,7.33,38,46.29-64.94,6.14,65.07,5.34-45.35,54.7,55.62-46.3,4,54.64,1,13.65,1.07-13.59,4.27-54.3,44.93,38.56,8.55,7.34-7.11-8.81-37.29-46.29,53.76-4.1Zm-73.48,2.27L775,526,752.17,507.6l-1.73,28.95-3.21-28.68-20.79,17.48,17.46-21.08-27.47-2.94,27.87-2.52-18-21.88,21.87,18L750,465.59l3.07,29.74,22-18.28-18.93,22.82,29.34,1.87Z" />
  <circle fill="#ffff00" cx="808.63" cy="442.73" r="9.34" />
  <circle fill="#ffff00" cx="828.23" cy="502.18" r="9.25" />
  <circle fill="#ffff00" cx="750.63" cy="579.82" r="9.6" />
  <circle fill="#ffff00" cx="672.24" cy="502.18" r="9.69" />
  <circle fill="#ffff00" cx="691.67" cy="560.7" r="9.69" />
  <circle fill="#ffff00" cx="692.42" cy="443.44" r="9.69" />
  <circle fill="#ffff00" cx="750.63" cy="418.68" r="9.69" />
  <circle fill="#ffff00" cx="808.67" cy="560.61" r="9.69" />
  <rect fill="#91f291" x="0.01" y="0.02" width="1500.02" height="332.75" />
  <rect fill="#ffffff" x="0.01" y="332.76" width="1500.02" height="332.89" />
  <rect fill="#91f291" x="0.01" y="665.66" width="1500.02" height="334.39" />
  <path fill="#66023c"
    d="M876.69,459.93h0s18.88-25.29-2.25-44.28c-17.65-15.85-45.83-13.87-70.38,7.63,15-31,10-58.1-11.59-69.82-24.57-13.36-42,12-42.17,12.34h0s-17.47-25.8-42.18-12.37-27.68,47-3.77,83.58c1.18,1.81,2.36,3.59,3.53,5.37-1.3-1.61-2.62-3.22-3.94-4.84-27.56-33.89-60.45-41.27-80.76-21.79s-1.26,43.65-1,43.95h0s-29.88,8.82-24.58,36.45,36.4,40.65,78.48,29c7.32-2,14.49-4.08,21.35-6.07-6.53,2.29-13.27,4.69-20,7.15-41.62,15.06-59.83,44.07-48.2,70,11.57,25.76,41.11,15.77,41.47,15.65h0s-1.77,31.52,26.33,35.67c24.18,3.57,47.23-14.82,55.21-48.17,4.38,31.41,22,50.25,45.38,49.53,28.22-.87,30.24-32,30.27-32.38h0s28.46,13.66,43-10.75c13.85-23.24,2.31-55.45-33-75.54,35.67,4.49,60.73-9.42,64.82-34.3C907.2,468,877.05,460,876.69,459.93Z" />
  <path fill="#ffff00"
    d="M829.92,501.87l-10.82-1.06-54.39-5.35,38.14-45.4,7.46-8.89-8.88,7.5-45.26,38.26-4.56-58.61-1-13.28-.94,13.28-4.26,59.55-54.14-45.76,6.26,7.33,38,46.29-64.94,6.14,65.07,5.34-45.35,54.7,55.62-46.3,4,54.64,1,13.65,1.07-13.59,4.27-54.3,44.93,38.56,8.55,7.34-7.11-8.81-37.29-46.29,53.76-4.1Zm-73.48,2.27L775,526,752.17,507.6l-1.73,28.95-3.21-28.68-20.79,17.48,17.46-21.08-27.47-2.94,27.87-2.52-18-21.88,21.87,18L750,465.59l3.07,29.74,22-18.28-18.93,22.82,29.34,1.87Z" />
  <circle fill="#ffff00" cx="808.63" cy="442.73" r="9.34" />
  <circle fill="#ffff00" cx="828.23" cy="502.18" r="9.25" />
  <circle fill="#ffff00" cx="750.63" cy="579.82" r="9.6" />
  <circle fill="#ffff00" cx="672.24" cy="502.18" r="9.69" />
  <circle fill="#ffff00" cx="691.67" cy="560.7" r="9.69" />
  <circle fill="#ffff00" cx="692.42" cy="443.44" r="9.69" />
  <circle fill="#ffff00" cx="750.63" cy="418.68" r="9.69" />
  <circle fill="#ffff00" cx="808.67" cy="560.61" r="9.69" />
</svg>