<?xml version="1.0" encoding="UTF-8"?>
<svg xmlns="http://www.w3.org/2000/svg" width="1000" height="600" viewBox="0 0 264.6 158.8">
  <path fill="#939" d="M-.033333-.0000011h264.67v158.8h-264.67z" />
  <path d="M132.3 140.27 62.163 18.52h140.27z" />
  <g fill="#ffffff" stroke="#ffffff" stroke-linecap="round" stroke-linejoin="round">
    <path fill-rule="evenodd" stroke-width="3.7783"
      d="m490.18 201.76-6.4219 257.68c-.00004 4.929 32.492 4.929 32.492 0l-6.0449-257.68z"
      transform="matrix(.26636 0 0 .26488 -.92950633 .13464)" />
    <path stroke-width="5"
      d="M417.25 89.424s-23.809 30.567-25.373 76.195c1.5644 45.628 25.373 76.195 25.373 76.195s35.114-84.994 72.922-40.051h20.025c37.808-44.944 72.922 40.051 72.922 40.051s23.809-30.567 25.373-76.195c-1.5644-45.628-25.373-76.195-25.373-76.195s-35.114 84.994-72.922 40.051c-4.6268-6.686-15.399-6.686-20.025 0-37.808 44.944-72.922-40.051-72.922-40.051z"
      transform="matrix(.26636 0 0 .26488 -.92950633 .13464)" />
  </g>
</svg>