<svg xmlns="http://www.w3.org/2000/svg" width="3200" height="1926.4" viewBox="0 0 3200 1926.4" version="1.1" id="svg3"
  sodipodi:docname="achillean.svg" xml:space="preserve" inkscape:version="1.3.2 (091e20ef0f, 2023-11-25)"
  xmlns:inkscape="http://www.inkscape.org/namespaces/inkscape"
  xmlns:sodipodi="http://sodipodi.sourceforge.net/DTD/sodipodi-0.dtd" xmlns:svg="http://www.w3.org/2000/svg">
  <sodipodi:namedview id="namedview3" pagecolor="#ffffff" bordercolor="#000000" borderopacity="0.25"
    inkscape:showpageshadow="2" inkscape:pageopacity="0.0" inkscape:pagecheckerboard="0" inkscape:deskcolor="#d1d1d1"
    inkscape:zoom="0.12236408" inkscape:cx="3734.756" inkscape:cy="2463.9583" inkscape:window-width="2256"
    inkscape:window-height="1427" inkscape:window-x="0" inkscape:window-y="40" inkscape:window-maximized="1"
    inkscape:current-layer="svg3" />
  <defs id="defs1" />
  <rect x="0" y="0" width="3200" height="646.40002" fill="#9ac6e9" id="rect1" style="stroke-width:6.4" />
  <rect x="0" y="640" width="3200" height="646.40002" fill="#fafdea" id="rect2" style="stroke-width:6.4" />
  <rect x="0" y="1280" width="3200" height="646.40002" fill="#9ac6e9" id="rect3" style="stroke-width:6.4" />
  <g id="g1297" transform="matrix(42.689104,0 0,42.689104,-2249,-1069.1268)">
    <path style="fill:#acdd4d;fill-opacity:1;stroke:none;stroke-width:0.054835"
      d="m 86.427343,50.733357 c -0.290461,1.389628 0.781508,1.672247 1.754719,2.245218 0.530254,0.312175 0.945519,0.944148 1.590214,1.017737 0.633673,0.07233 0.987139,-0.394264 1.480544,-0.689989 0.324952,-0.194719 0.705945,-0.254653 1.041645,-0.426451 0.767525,-0.392838 1.182954,-1.081894 1.206588,-1.927175 -0.644201,0.353137 -1.209988,0.85729 -1.919223,1.083923 -1.866802,0.596659 -3.602548,-0.405395 -5.154487,-1.303263 z"
      id="path1285" />
    <path style="fill:#659533;fill-opacity:1;stroke:none;stroke-width:0.054835"
      d="m 100.95861,47.991609 c -0.27752,0.550653 -0.62605,1.091161 -1.152578,1.434812 -0.647656,0.422723 -1.510648,0.557836 -2.247192,0.755461 -1.364403,0.366078 -2.625443,0.91207 -3.356832,2.196579 -0.243631,0.427822 -0.349463,0.889588 -0.42678,1.370819 1.959418,-1.057657 4.372759,0.29748 6.126217,-1.49173 0.264035,-0.269349 0.478105,-0.578728 0.636415,-0.921008 0.22471,-0.485783 0.35719,-1.009238 0.44575,-1.535379 0.10205,-0.606201 0.19401,-1.220571 -0.025,-1.809554"
      id="path1283" />
    <path style="fill:#659533;fill-opacity:1;stroke:none;stroke-width:0.054835"
      d="m 79.682643,47.662599 c -1.255337,2.582343 0.244454,5.100255 3.015923,5.57392 1.284783,0.219559 2.416741,-0.346228 3.619107,0.348256 -0.142297,-1.378167 -0.902035,-2.633887 -2.193398,-3.226599 -1.332051,-0.611354 -2.847086,-0.431496 -3.832032,-1.710741 -0.228552,-0.296876 -0.368546,-0.637401 -0.49993,-0.984836 h -0.10967"
      id="path1281" />
    <path style="fill:#acdd4d;fill-opacity:1;stroke:none;stroke-width:0.054835"
      d="m 90.5948,48.594794 c -1.219858,-0.413401 -1.368077,-1.329858 -1.151534,-2.467574 -1.115343,0.350506 -0.978969,1.170069 -0.570393,2.028072 0.127052,0.266826 0.190496,0.601649 0.488415,0.732814 0.429028,0.188906 0.895564,-0.0323 1.233512,-0.293312"
      id="path1279" />
    <path style="fill:#acdd4d;fill-opacity:1;stroke:none;stroke-width:0.054835"
      d="m 92.459188,46.017548 c 0.153538,0.523125 0.367394,1.036161 0.366407,1.590213 -0.003,1.622786 -1.364074,2.398811 -2.72431,2.796584 v 0.109669 c 0.680721,0.400022 1.438101,0.588763 2.190656,0.238094 0.30576,-0.142461 0.534915,-0.397554 0.832395,-0.551037 0.299509,-0.154525 0.813586,-0.0879 0.977707,-0.43857 0.137746,-0.294354 -0.02972,-0.692456 -0.03186,-1.003205 -0.0088,-1.286045 -0.09311,-2.492798 -1.610996,-2.741748"
      id="path1277" />
    <path style="fill:#acdd4d;fill-opacity:1;stroke:none;stroke-width:0.054835"
      d="m 89.552935,50.185008 c -1.388695,-0.389219 -2.347156,-1.484712 -2.387569,-2.961088 -0.0147,-0.53678 0.157212,-1.065553 0.249005,-1.590214 -1.655796,0.342389 -1.664899,1.584237 -1.54492,2.961088 0.03131,0.359059 -0.134455,0.834807 0.114496,1.142706 0.213088,0.263482 0.650726,0.254708 0.93691,0.406875 0.895016,0.475803 1.877713,1.181529 2.632078,0.04063"
      id="path1275" />
    <path style="fill:#acdd4d;fill-opacity:1;stroke:none;stroke-width:0.054835"
      d="m 89.443265,45.249861 c 1.260491,0.314479 1.640498,1.122527 1.370874,2.357903 1.023769,-0.407752 1.041206,-1.10805 0.558713,-1.972687 -0.153647,-0.275381 -0.311681,-0.557672 -0.621554,-0.678144 -0.454966,-0.176898 -0.940584,0.02391 -1.308033,0.292928"
      id="path1273" />
    <path style="fill:#acdd4d;fill-opacity:1;stroke:none;stroke-width:0.054835"
      d="m 92.514023,45.743376 c 0.749758,-0.423655 1.05327,-1.34225 0.435938,-2.054447 -0.278397,-0.321168 -0.689714,-0.443176 -1.010444,-0.707371 -0.272694,-0.224659 -0.431771,-0.593698 -0.760561,-0.747291 -0.486496,-0.227346 -0.949687,0.145148 -1.406681,0.264853 -0.423545,0.110931 -0.855974,0.08105 -1.26115,0.274065 -0.599017,0.285416 -1.737555,1.571735 -0.878456,2.209027 0.31574,0.234255 1.118469,-0.75261 1.426971,-0.909767 0.974362,-0.496257 2.550483,-0.431935 3.191285,0.580154 0.206234,0.325665 0.206399,0.721189 0.263098,1.090777"
      id="path1271" />
    <path style="fill:#acdd4d;fill-opacity:1;stroke:none;stroke-width:0.054835"
      d="m 91.965673,41.521084 c 0.454527,0.628573 1.258627,0.914537 1.79102,1.48515 0.824389,0.883665 1.541136,2.493291 1.462997,3.724171 -0.03241,0.510788 -0.259096,0.994651 -0.402599,1.480544 1.044826,-0.08834 2.187586,-0.674031 2.16971,-1.864389 -0.0084,-0.556026 -0.296438,-1.045867 -0.34217,-1.590214 -0.03652,-0.434183 0.372274,-0.881472 0.170153,-1.297121 -0.207276,-0.426232 -0.751294,-0.344857 -1.068898,-0.630876 -0.306911,-0.276423 -0.429139,-0.704026 -0.733966,-0.991526 -0.868421,-0.819234 -2.015404,-0.652481 -3.046247,-0.315739"
      id="path1269" />
    <path style="fill:#acdd4d;fill-opacity:1;stroke:none;stroke-width:0.054835"
      d="m 84.562954,47.498095 c 0.21775,-0.754146 0.207606,-1.567677 0.480245,-2.303069 0.70611,-1.904254 2.291882,-2.827455 4.071057,-3.509437 -0.572861,-0.707262 -1.909353,-0.775915 -2.686913,-0.393935 -0.454033,0.223069 -0.797684,0.61958 -1.261204,0.825266 -0.444328,0.197132 -1.074381,0.04645 -1.394124,0.479861 -0.317714,0.430674 0.06366,1.14627 -0.09015,1.666051 -0.344363,1.163323 -0.541221,2.696399 0.881088,3.235263"
      id="path1265" />
  </g>
</svg>