<svg xmlns="http://www.w3.org/2000/svg" viewBox="0 0 924.09 555.59">
  <rect fill="#340c46" width="924.09" height="185.2" transform="translate(924.09 925.98) rotate(180)" y="370.39" />
  <rect fill="#e50051" width="924.09" height="185.2" transform="translate(924.09 555.59) rotate(180)" y="185.2" />
  <rect fill="#009fe3" width="924.09" height="185.2" transform="translate(924.09 185.2) rotate(180)" y="0" />
  <polygon fill="#ffffff" points="185.2 0 0 0 0 555.59 370.39 185.2 185.2 0" />
  <path fill="#fcbf00"
    d="M89.62,94.72h0c-23.89,23.89-23.89,62.64,0,86.53l3.82,3.82h0s-4.07,4.07-4.07,4.07c-23.89,23.89-23.89,62.64,0,86.53h0c23.89,23.89,62.64,23.89,86.53,0l4.07-4.07,86.53-86.53,.79-.79-87.09-85.52-.23-.23-3.82-3.82c-23.89-23.89-62.64-23.89-86.53,0Z" />
</svg>