<svg xmlns="http://www.w3.org/2000/svg" xmlns:dc="http://purl.org/dc/elements/1.1/"
   xmlns:cc="http://creativecommons.org/ns#" xmlns:rdf="http://www.w3.org/1999/02/22-rdf-syntax-ns#"
   xmlns:svg="http://www.w3.org/2000/svg" xmlns:sodipodi="http://sodipodi.sourceforge.net/DTD/sodipodi-0.dtd"
   xmlns:inkscape="http://www.inkscape.org/namespaces/inkscape" width="400" height="247.10403" id="svg2838"
   version="1.1" inkscape:version="0.48.1 " sodipodi:docname="ZZ1.svg">
   <metadata id="metadata2856">
      <rdf:RDF>
         <cc:Work rdf:about="">
            <dc:format>image/svg+xml</dc:format>
            <dc:type rdf:resource="http://purl.org/dc/dcmitype/StillImage" />
            <dc:title />
         </cc:Work>
      </rdf:RDF>
   </metadata>
   <defs id="defs2854">
      <inkscape:perspective sodipodi:type="inkscape:persp3d" inkscape:vp_x="0 : 240 : 1" inkscape:vp_y="0 : 1000 : 0"
         inkscape:vp_z="777 : 240 : 1" inkscape:persp3d-origin="388.5 : 160 : 1" id="perspective2858" />
      <marker markerUnits="strokeWidth" refX="10" refY="5" markerWidth="4" markerHeight="3" orient="auto"
         viewBox="0 0 10 10" id="ArrowStart">
         <path d="M 10,0 0,5 10,10 10,0 z" id="path553" />
      </marker>
      <marker markerUnits="strokeWidth" refX="0" refY="5" markerWidth="4" markerHeight="3" orient="auto"
         viewBox="0 0 10 10" id="ArrowEnd">
         <path d="M 0,0 10,5 0,10 0,0 z" id="path551" />
      </marker>
      <inkscape:perspective id="perspective4692" inkscape:persp3d-origin="100 : 66.666667 : 1"
         inkscape:vp_z="200 : 100 : 1" inkscape:vp_y="0 : 1000 : 0" inkscape:vp_x="0 : 100 : 1"
         sodipodi:type="inkscape:persp3d" />
      <inkscape:perspective id="perspective5329" inkscape:persp3d-origin="0.5 : 0.33333333 : 1"
         inkscape:vp_z="1 : 0.5 : 1" inkscape:vp_y="0 : 1000 : 0" inkscape:vp_x="0 : 0.5 : 1"
         sodipodi:type="inkscape:persp3d" />
      <inkscape:perspective id="perspective5352" inkscape:persp3d-origin="0.5 : 0.33333333 : 1"
         inkscape:vp_z="1 : 0.5 : 1" inkscape:vp_y="0 : 1000 : 0" inkscape:vp_x="0 : 0.5 : 1"
         sodipodi:type="inkscape:persp3d" />
      <inkscape:perspective id="perspective5375" inkscape:persp3d-origin="0.5 : 0.33333333 : 1"
         inkscape:vp_z="1 : 0.5 : 1" inkscape:vp_y="0 : 1000 : 0" inkscape:vp_x="0 : 0.5 : 1"
         sodipodi:type="inkscape:persp3d" />
      <inkscape:perspective id="perspective5398" inkscape:persp3d-origin="0.5 : 0.33333333 : 1"
         inkscape:vp_z="1 : 0.5 : 1" inkscape:vp_y="0 : 1000 : 0" inkscape:vp_x="0 : 0.5 : 1"
         sodipodi:type="inkscape:persp3d" />
      <inkscape:perspective id="perspective5421" inkscape:persp3d-origin="0.5 : 0.33333333 : 1"
         inkscape:vp_z="1 : 0.5 : 1" inkscape:vp_y="0 : 1000 : 0" inkscape:vp_x="0 : 0.5 : 1"
         sodipodi:type="inkscape:persp3d" />
      <inkscape:perspective id="perspective2496" inkscape:persp3d-origin="372.04724 : 350.78739 : 1"
         inkscape:vp_z="744.09448 : 526.18109 : 1" inkscape:vp_y="0 : 1000 : 0" inkscape:vp_x="0 : 526.18109 : 1"
         sodipodi:type="inkscape:persp3d" />
   </defs>
   <sodipodi:namedview pagecolor="#ffffff" bordercolor="#666666" borderopacity="1" objecttolerance="10"
      gridtolerance="10" guidetolerance="10" inkscape:pageopacity="0" inkscape:pageshadow="2"
      inkscape:window-width="1280" inkscape:window-height="1004" id="namedview2852" showgrid="false"
      inkscape:zoom="0.81192447" inkscape:cx="123.44361" inkscape:cy="141.58109" inkscape:window-x="-8"
      inkscape:window-y="-8" inkscape:window-maximized="1" inkscape:current-layer="g3084" />
   <g id="g2862" transform="matrix(0.51479978,0,0,0.51479978,5.7281296e-4,0)">
      <g id="g2943">
         <path style="fill:#004dff;fill-opacity:1" d="m 0,320 0,80 777,0 0,-80 -777,0 z" id="rect2848-9" />
         <path style="fill:#008026;fill-opacity:1" d="m 0,240 0,80 777,0 0,-80 -777,0 z" id="rect2846-0" />
         <path d="m 0,160 0,80 777,0 0,-80 -777,0 z" id="rect2844-4" style="fill:#ffff00;fill-opacity:1" />
         <path style="fill:#ff8c00;fill-opacity:1" d="m 0,80 0,80 777,0 0,-80 -777,0 z" id="rect2842-7" />
         <path style="fill:#e40303;fill-opacity:1" d="M 0,0 0,80 777,80 777,0 0,0 z" id="rect2840-1" />
         <rect y="400" width="777" height="80" id="rect2850" style="fill:#750787;fill-opacity:1" x="0" />
      </g>
      <polygon transform="matrix(2.1777619,0,0,2.0276752,161.0189,-53.96163)"
         style="fill:#f8c300;fill-rule:evenodd;fill-opacity:1"
         points="-73.9383,145.003 104.446,26.6127 104.446,26.6127 282.85,144.941 104.46,263.337 " class="fil1"
         id="_136336088" />
      <g id="g3084">
         <ellipse id="_136384056" class="fil2" cx="104.456" cy="144.97501" rx="76.656998" ry="78.247704"
            sodipodi:cx="104.456" sodipodi:cy="144.97501" sodipodi:rx="76.656998" sodipodi:ry="78.247704"
            style="fill:#28166f;fill-rule:evenodd;fill-opacity:1"
            transform="matrix(2.1777619,0,0,2.1792127,161.0189,-75.930752)"
            d="m 181.113,144.97501 c 0,43.21501 -34.32051,78.2477 -76.657,78.2477 -42.33649,0 -76.656996,-35.03269 -76.656996,-78.2477 0,-43.21502 34.320506,-78.247707 76.656996,-78.247707 42.33649,0 76.657,35.032687 76.657,78.247707 z" />
         <path id="_136371840" class="fil3"
            d="m 554.43376,258.70258 c -1.26028,11.78717 -3.69764,23.21254 -7.18837,34.15284 l -4.66609,-5.81868 -8.56859,-9.77617 -8.76092,-9.12544 -8.94209,-8.48894 -9.12634,-7.8737 -9.30296,-7.27139 -9.48179,-6.68889 -9.65467,-6.1166 -9.83064,-5.56461 -10.0018,-5.02681 -10.17689,-4.50156 -10.35093,-3.98909 -10.52296,-3.49193 -10.69363,-3.00257 -10.86661,-2.52766 -11.0323,-2.05954 -11.20111,-1.60544 -11.36225,-1.15978 -11.52343,-0.72504 -11.67672,-0.29762 -11.82874,0.11633 -11.97464,0.52336 -12.1175,0.91654 -12.24903,1.30295 -12.37993,1.67823 -12.50406,2.04108 -12.62317,2.39077 -12.7301,2.73449 -12.83835,3.06203 -12.93678,3.38581 -2.17667,0.61608 c 1.42949,-10.57549 3.79672,-20.84569 7.0333,-30.71012 l 1.58171,-0.41345 13.41436,-3.20081 13.34772,-2.86656 13.27738,-2.51567 13.20007,-2.1546 13.12188,-1.77645 13.03608,-1.38688 12.94854,-0.97997 12.85293,-0.56225 12.7545,-0.12553 12.64974,0.32389 12.54044,0.78821 12.42302,1.26767 12.29978,1.76363 12.16783,2.27184 12.03276,2.79766 11.88361,3.33744 11.72574,3.89037 11.55913,4.45625 11.38684,5.03592 11.19742,5.62612 11.00224,6.22906 10.7956,6.84074 10.58416,7.4651 10.35635,8.09425 10.12484,8.73539 9.88246,9.38241 9.63746,10.0394 0.47212,0.53802 0,0 z"
            style="fill:#ffffff;fill-rule:evenodd" />
         <path id="_136371528" class="fil4"
            d="m 274.39187,191.41725 c -0.48887,-2.58847 -0.19773,-4.72132 0.87722,-6.40124 1.07428,-1.67993 2.67951,-2.69283 4.81721,-3.03629 1.39659,-0.22415 2.72459,-0.0825 3.97593,0.42416 1.25308,0.50943 2.29057,1.3302 3.11202,2.46558 0.82124,1.13232 1.37831,2.48257 1.6723,4.03959 0.29881,1.58234 0.25916,3.04653 -0.12672,4.39137 -0.38504,1.34783 -1.08497,2.43265 -2.09959,3.25813 -1.01767,0.82436 -2.18124,1.34065 -3.4977,1.55204 -1.42884,0.23005 -2.7688,0.0821 -4.02407,-0.44937 -1.26005,-0.52712 -2.29297,-1.35894 -3.10353,-2.49324 -0.80926,-1.13034 -1.3439,-2.38299 -1.60305,-3.75061 z m 2.07368,-0.29975 c 0.35518,1.88021 1.12459,3.27818 2.30973,4.20283 1.18884,0.92372 2.52207,1.26632 4.00338,1.02834 1.50984,-0.24239 2.64902,-0.98588 3.41604,-2.235 0.76787,-1.24911 0.96496,-2.87745 0.58603,-4.88428 -0.23996,-1.26697 -0.66008,-2.34047 -1.25526,-3.21979 -0.59519,-0.88103 -1.34477,-1.51583 -2.24331,-1.90987 -0.90312,-0.38984 -1.85198,-0.50728 -2.84982,-0.34694 -1.42186,0.22843 -2.54798,0.92549 -3.38076,2.09509 -0.8343,1.16611 -1.02921,2.92556 -0.58603,5.26956 z m 16.5695,4.95313 -2.41515,-15.66375 6.75869,-0.83686 c 1.35914,-0.16784 2.41426,-0.15444 3.16385,0.0376 0.74937,0.19358 1.3905,0.62 1.92601,1.27791 0.53267,0.66246 0.86349,1.4243 0.99633,2.28464 0.17117,1.11319 -0.0326,2.08946 -0.61739,2.93892 -0.58211,0.84903 -1.59064,1.46768 -3.02099,1.85667 0.57688,0.1968 1.02157,0.4054 1.33867,0.62981 0.67467,0.48154 1.33867,1.10922 1.99635,1.87474 l 3.30823,3.93547 -2.53796,0.31423 -2.51836,-3.01125 c -0.73412,-0.86447 -1.3317,-1.52543 -1.79164,-1.97453 -0.45689,-0.45205 -0.85107,-0.76034 -1.1834,-0.91966 -0.33235,-0.16409 -0.65855,-0.26383 -0.98326,-0.30619 -0.23847,-0.0214 -0.61521,0.001 -1.13701,0.0665 l -2.33871,0.28957 1.0719,6.95513 -2.01616,0.24935 0,0 z m 0.6677,-8.99842 4.33744,-0.53762 c 0.91924,-0.11368 1.62745,-0.30191 2.11569,-0.5629 0.49194,-0.26168 0.83736,-0.62455 1.04055,-1.08808 0.2032,-0.46385 0.2659,-0.94662 0.18794,-1.45374 -0.11394,-0.73964 -0.46693,-1.31711 -1.0658,-1.73007 -0.59519,-0.4129 -1.45867,-0.54787 -2.59154,-0.40754 l -4.82331,0.59732 0.79902,5.18263 z m 14.66482,7.00115 -1.88093,-15.71996 5.27563,-0.4617 c 1.19102,-0.10397 2.10938,-0.10624 2.75574,-0.0113 0.9016,0.12869 1.69626,0.43971 2.38073,0.92684 0.89092,0.63323 1.60457,1.47181 2.134,2.52831 0.5333,1.05585 0.88242,2.28271 1.05054,3.68374 0.14287,1.19378 0.13371,2.26267 -0.0305,3.20934 -0.16113,0.94598 -0.41551,1.74159 -0.77157,2.38293 -0.35149,0.64071 -0.75874,1.15652 -1.22391,1.5455 -0.46144,0.39145 -1.03989,0.70826 -1.73219,0.95038 -0.69448,0.24237 -1.50504,0.40164 -2.42951,0.48207 l -5.52781,0.4837 z m 1.8032,-2.03321 3.27143,-0.28635 c 1.00939,-0.0885 1.79317,-0.25257 2.34414,-0.49656 0.55076,-0.24507 0.97499,-0.55614 1.27595,-0.93644 0.42249,-0.53355 0.71735,-1.23232 0.88613,-2.08591 0.1666,-0.85841 0.18274,-1.87608 0.0397,-3.06637 -0.19644,-1.64315 -0.61129,-2.88245 -1.24088,-3.71882 -0.63417,-0.8397 -1.34303,-1.37294 -2.13225,-1.60743 -0.56774,-0.16838 -1.45779,-0.19734 -2.6597,-0.0923 l -3.22113,0.28205 1.43646,12.00789 0,0 z m 13.60121,0.47028 -1.34477,-15.75658 11.11595,-0.57163 0.159,1.86043 -9.0828,0.46653 0.41247,4.82454 8.50591,-0.43757 0.15829,1.84862 -8.50676,0.43704 0.45753,5.36325 9.44038,-0.48529 0.15899,1.86015 -11.47419,0.58991 0,0 z m 14.28045,-0.90394 -0.53856,-15.77684 3.07369,0.005 4.03104,11.17849 c 0.37351,1.04058 0.64701,1.81968 0.81579,2.33785 0.1568,-0.57314 0.40116,-1.4167 0.73674,-2.52939 l 3.3165,-10.96668 2.74748,0.005 0.53856,15.77684 -1.96718,-0.004 -0.45164,-13.20606 -4.03104,13.19581 -1.84195,-0.004 -4.91977,-13.44029 0.45839,13.43006 -1.96805,-0.004 0,0 z m 24.06078,0.33998 0.26897,-15.75336 11.1571,0.62262 -0.0321,1.85995 -9.11569,-0.50889 -0.0826,4.82283 8.53811,0.47617 -0.0321,1.84842 -8.53727,-0.47619 -0.0916,5.36261 9.47479,0.5282 -0.0321,1.85995 -11.51554,-0.64221 0,0 z m 20.32396,1.55027 1.3448,-15.65459 5.79978,0.73829 c 1.01985,0.12978 1.79687,0.28046 2.32477,0.44723 0.74503,0.22361 1.35696,0.54787 1.83823,0.97435 0.47747,0.42148 0.84584,0.9811 1.10172,1.66491 0.25616,0.68949 0.34833,1.41953 0.28188,2.196 -0.11469,1.33084 -0.62655,2.40782 -1.53642,3.22393 -0.9131,0.81218 -2.45649,1.08373 -4.62928,0.80698 l -3.94628,-0.50245 -0.54617,6.3644 -2.03319,-0.259 0,0 z m 2.7383,-7.95301 3.97747,0.5062 c 1.31431,0.16784 2.27011,0.0376 2.86445,-0.39092 0.59451,-0.42899 0.92986,-1.09392 1.00784,-1.99765 0.0557,-0.65571 -0.0574,-1.23844 -0.34243,-1.74642 -0.28563,-0.50782 -0.68534,-0.86801 -1.20563,-1.08524 -0.33599,-0.1346 -0.96276,-0.26222 -1.88571,-0.37965 l -3.93547,-0.5014 -0.48068,5.59518 0,0 z m 11.4535,9.87617 1.88116,-15.57747 6.79226,1.11012 c 1.36522,0.22254 2.38682,0.53409 3.06299,0.92877 0.67532,0.39574 1.18338,0.98131 1.5264,1.75838 0.33869,0.77996 0.45497,1.59762 0.35101,2.45361 -0.13397,1.10616 -0.5952,1.9776 -1.39292,2.62006 -0.79466,0.64328 -1.94059,0.94862 -3.43494,0.91461 0.50693,0.3491 0.88238,0.67336 1.12979,0.97692 0.52571,0.64745 1.00178,1.43176 1.43344,2.34487 l 2.15289,4.67526 -2.551,-0.41666 -1.63423,-3.57302 c -0.47961,-1.02882 -0.88174,-1.82686 -1.20799,-2.38321 -0.32099,-0.55832 -0.62108,-0.96319 -0.90071,-1.20857 -0.27919,-0.24935 -0.56926,-0.43597 -0.87327,-0.56772 -0.22614,-0.0852 -0.59826,-0.17213 -1.12154,-0.25739 l -2.35092,-0.38449 -0.83517,6.91641 -2.02708,-0.33085 z m 3.07763,-8.37015 4.35881,0.7124 c 0.92359,0.15068 1.66247,0.17159 2.20714,0.0611 0.54857,-0.1104 0.98195,-0.35766 1.30429,-0.74183 0.32313,-0.38342 0.51444,-0.8257 0.57537,-1.32971 0.0885,-0.73572 -0.0981,-1.38424 -0.56842,-1.94543 -0.46674,-0.5609 -1.26987,-0.93224 -2.40749,-1.11837 l -4.84769,-0.79192 -0.62201,5.15363 0,0 z m 13.39346,3.6964 c 0.53267,-2.54032 1.62045,-4.35646 3.2684,-5.44894 1.64725,-1.09242 3.53515,-1.36874 5.66545,-0.82527 1.39201,0.35499 2.5793,1.01424 3.55563,1.97287 0.97648,0.96192 1.63353,2.12078 1.96673,3.47714 0.33439,1.35437 0.33869,2.79987 0.0161,4.32814 -0.32636,1.55311 -0.92296,2.86417 -1.79773,3.92823 -0.87632,1.06716 -1.9452,1.77018 -3.20983,2.11257 -1.26746,0.3405 -2.55321,0.34318 -3.8644,0.0101 -1.42406,-0.36303 -2.62051,-1.03204 -3.59094,-2.01556 -0.97627,-0.9804 -1.62351,-2.14758 -1.9482,-3.49912 -0.32422,-1.3474 -0.34564,-2.69615 -0.0633,-4.03852 l 0,0 z m 2.05296,0.55699 c -0.38744,1.84493 -0.20257,3.41986 0.55229,4.73065 0.75789,1.31185 1.87419,2.15476 3.34963,2.53159 1.50439,0.3834 2.85437,0.16515 4.04934,-0.65943 1.19555,-0.82484 2.00243,-2.22152 2.41575,-4.19108 0.26097,-1.24348 0.27813,-2.38385 0.0585,-3.41916 -0.22025,-1.03537 -0.67704,-1.9103 -1.36699,-2.6264 -0.69509,-0.71394 -1.53701,-1.19924 -2.53182,-1.45331 -1.4173,-0.36142 -2.73616,-0.17964 -3.96226,0.5474 -1.22626,0.72285 -2.08126,2.23868 -2.56409,4.53974 z m 21.85648,7.75976 0.46729,-1.76627 6.31703,1.95738 -1.48129,5.59228 c -1.17599,0.48154 -2.33108,0.75598 -3.46726,0.83073 -1.13547,0.0724 -2.24545,-0.0611 -3.3289,-0.39896 -1.46457,-0.45688 -2.7137,-1.18766 -3.73987,-2.19514 -1.02985,-1.00523 -1.68931,-2.20556 -1.98265,-3.59329 -0.29312,-1.39186 -0.24329,-2.82732 0.14897,-4.30938 0.38906,-1.46704 1.05731,-2.74039 2.0018,-3.82214 0.94122,-1.08568 2.06668,-1.75774 3.36855,-2.0212 1.30186,-0.25901 2.69543,-0.15926 4.18154,0.30351 1.07583,0.33516 2.00484,0.81589 2.78251,1.44174 0.77789,0.62176 1.33172,1.32714 1.65726,2.11214 0.32851,0.78666 0.48606,1.72438 0.47748,2.82051 l -1.9116,-0.0601 c -0.0214,-0.83899 -0.13986,-1.52962 -0.35368,-2.07133 -0.2165,-0.54197 -0.59976,-1.04127 -1.14748,-1.49755 -0.54489,-0.45473 -1.19647,-0.80242 -1.94606,-1.03601 -0.90313,-0.28153 -1.7213,-0.38395 -2.45015,-0.31156 -0.73352,0.0723 -1.35767,0.27242 -1.88423,0.59888 -0.52247,0.32657 -0.9656,0.72504 -1.33627,1.19876 -0.62414,0.81202 -1.08259,1.7639 -1.37223,2.85568 -0.35583,1.34436 -0.42442,2.53899 -0.20685,3.58738 0.21864,1.04867 0.7073,1.9273 1.46542,2.63798 0.75934,0.7117 1.62721,1.22145 2.6098,1.52807 0.85719,0.26758 1.73439,0.35767 2.6351,0.27723 0.90397,-0.0751 1.61219,-0.23863 2.13248,-0.48637 l 0.74412,-2.80855 -4.38099,-1.36483 0,0 z m 7.56772,9.3499 5.27957,-14.614 6.42918,2.63444 c 1.29357,0.52979 2.22868,1.06475 2.80562,1.60168 0.57751,0.53785 0.94728,1.22059 1.11388,2.05047 0.15969,0.8309 0.0943,1.6477 -0.1956,2.45072 -0.37511,1.03859 -1.0207,1.77345 -1.94606,2.21124 -0.92294,0.43757 -2.11635,0.4692 -3.57781,0.0928 0.42174,0.45366 0.71974,0.85365 0.89546,1.20295 0.37459,0.74704 0.66926,1.61349 0.89225,2.59524 l 1.0858,5.01238 -2.41512,-0.99001 -0.8184,-3.82756 c -0.24543,-1.10443 -0.46514,-1.96805 -0.66223,-2.58016 -0.19239,-0.61389 -0.3987,-1.0735 -0.61981,-1.37444 -0.21917,-0.30565 -0.463,-0.55307 -0.7326,-0.74966 -0.20417,-0.13406 -0.55009,-0.30351 -1.04598,-0.50729 l -2.22568,-0.91155 -2.3439,6.48903 -1.91862,-0.78624 0,0 z m 4.86682,-7.37665 4.12731,1.69108 c 0.8742,0.35766 1.59608,0.5483 2.15532,0.56637 0.56322,0.0214 1.04384,-0.1196 1.44566,-0.41559 0.4019,-0.29599 0.68683,-0.67946 0.858,-1.15301 0.24919,-0.68971 0.20845,-1.35936 -0.13076,-2.00966 -0.33493,-0.64875 -1.04208,-1.19313 -2.11941,-1.63441 l -4.58962,-1.88 -1.7466,4.83522 0,0 z m 9.60334,13.52072 6.03107,-14.28341 10.27163,4.84282 -0.71213,1.68674 -8.39201,-3.95766 -1.84671,4.37367 7.86037,3.70552 -0.70753,1.67602 -7.8602,-3.70638 -2.05297,4.86267 8.72281,4.11305 -0.71191,1.68584 -10.60242,-4.99888 0,0 z m 14.98625,1.88456 1.76659,0.86929 c -0.2958,0.72393 -0.41745,1.38881 -0.36547,1.99965 0.0536,0.61061 0.31081,1.23301 0.77617,1.87109 0.46461,0.63743 1.08253,1.1868 1.84976,1.6499 0.68229,0.41184 1.33847,0.67507 1.97109,0.78886 0.63507,0.1104 1.17818,0.0687 1.62811,-0.12923 0.45068,-0.20109 0.79246,-0.50675 1.02396,-0.92485 0.23525,-0.42417 0.31724,-0.86667 0.24436,-1.33455 -0.0697,-0.46544 -0.32796,-0.97391 -0.77157,-1.52784 -0.28669,-0.36303 -0.96346,-1.06503 -2.03929,-2.11342 -1.07273,-1.04734 -1.78856,-1.85277 -2.13854,-2.41694 -0.45765,-0.72591 -0.70517,-1.43767 -0.74568,-2.12914 -0.0376,-0.68971 0.11519,-1.34499 0.45979,-1.96714 0.37672,-0.67947 0.9223,-1.20187 1.63658,-1.55879 0.71518,-0.36142 1.53032,-0.46921 2.44345,-0.32925 0.91379,0.14532 1.82217,0.48797 2.73135,1.03773 1.00241,0.60541 1.79316,1.29732 2.38076,2.08511 0.58603,0.78231 0.91073,1.61172 0.97627,2.4867 0.0611,0.87252 -0.10927,1.71741 -0.5166,2.52917 l -1.78491,-0.90587 c 0.3778,-0.90962 0.42549,-1.74513 0.13505,-2.5 -0.28938,-0.75862 -0.95189,-1.4479 -1.98877,-2.07395 -1.08189,-0.65379 -1.97649,-0.93054 -2.69324,-0.83444 -0.71278,0.0987 -1.22604,0.4263 -1.53487,0.98282 -0.26955,0.48689 -0.31456,0.99326 -0.13825,1.51497 0.17093,0.5239 0.88934,1.38554 2.15986,2.59025 1.26988,1.20638 2.1072,2.09509 2.51227,2.66688 0.58364,0.8399 0.91052,1.6499 0.97782,2.42986 0.0664,0.7821 -0.10448,1.53568 -0.50479,2.25789 -0.3987,0.72086 -0.97783,1.2733 -1.74114,1.65945 -0.76417,0.38715 -1.62833,0.52335 -2.59543,0.41343 -0.96497,-0.11318 -1.92994,-0.46116 -2.8919,-1.04228 -1.22234,-0.73857 -2.14984,-1.53397 -2.7749,-2.38954 -0.62955,-0.85508 -0.98104,-1.77999 -1.0551,-2.78238 -0.0728,-0.99638 0.12808,-1.95782 0.60652,-2.87312 l 0,0 z m 12.57436,7.86303 1.73744,0.9314 c -0.31992,0.71218 -0.46461,1.37164 -0.433,1.9829 0.0321,0.61083 0.26902,1.24107 0.71279,1.89459 0.44316,0.65291 1.04292,1.22342 1.79471,1.71328 0.66858,0.43596 1.31645,0.72113 1.94536,0.85733 0.63181,0.13353 1.17642,0.11104 1.63332,-0.0708 0.45818,-0.185 0.81079,-0.47833 1.05665,-0.88693 0.25026,-0.41505 0.34672,-0.85316 0.29045,-1.32281 -0.0536,-0.46706 -0.29527,-0.98431 -0.72066,-1.5531 -0.27437,-0.37161 -0.9275,-1.09661 -1.96802,-2.18163 -1.03774,-1.08369 -1.72677,-1.91288 -2.05758,-2.48885 -0.43299,-0.74071 -0.65699,-1.46007 -0.67312,-2.1522 -0.016,-0.68949 0.16131,-1.33759 0.52732,-1.94648 0.4003,-0.66468 0.96346,-1.16697 1.69081,-1.49756 0.72805,-0.33516 1.548,-0.41345 2.45632,-0.24131 0.90923,0.17803 1.80689,0.55243 2.69779,1.13324 0.98265,0.63978 1.75029,1.35893 2.31126,2.16613 0.55995,0.80152 0.85633,1.64158 0.89224,2.51695 0.0321,0.87299 -0.16826,1.71049 -0.60345,2.50568 l -1.75416,-0.96802 c 0.40834,-0.89433 0.48497,-1.72658 0.21971,-2.4904 -0.26366,-0.76709 -0.90312,-1.47815 -1.91926,-2.14103 -1.06057,-0.69106 -1.94605,-0.99854 -2.66644,-0.9284 -0.71669,0.0723 -1.24244,0.3818 -1.56928,0.92619 -0.28722,0.47671 -0.3494,0.97998 -0.19023,1.50736 0.15272,0.52874 0.84277,1.41406 2.07279,2.6619 1.22931,1.25002 2.03769,2.16656 2.42272,2.75149 0.55555,0.85927 0.855,1.67908 0.8955,2.46032 0.0376,0.78275 -0.15646,1.52915 -0.58212,2.23563 -0.42389,0.70499 -1.02225,1.23566 -1.79922,1.59392 -0.77794,0.35821 -1.64731,0.46492 -2.61163,0.32013 -0.96191,-0.14747 -1.91528,-0.52927 -2.85828,-1.1432 -1.19797,-0.78061 -2.09873,-1.60759 -2.69452,-2.48407 -0.60132,-0.87585 -0.92145,-1.81201 -0.96126,-2.81467 -0.0376,-0.99719 0.1956,-1.94997 0.7051,-2.84673 l 0,0 z m 14.41201,6.37508 c 1.54254,-2.03123 3.2967,-3.17905 5.26799,-3.43901 1.97114,-0.26168 3.8255,0.30833 5.56508,1.7135 1.13612,0.91794 1.95822,2.0184 2.4626,3.2939 0.50212,1.27941 0.6281,2.59459 0.37457,3.94741 -0.25133,1.35068 -0.84648,2.63991 -1.77398,3.862 -0.94364,1.24262 -2.03624,2.1524 -3.28319,2.72163 -1.2492,0.57205 -2.52577,0.73593 -3.83311,0.49388 -1.30948,-0.244 -2.49614,-0.79782 -3.5665,-1.66278 -1.16292,-0.93922 -1.98963,-2.05213 -2.47766,-3.34747 -0.49354,-1.29464 -0.60759,-2.61395 -0.34778,-3.95809 0.25829,-1.34022 0.79686,-2.55056 1.61219,-3.62471 l 0,0 z m 1.66252,1.3836 c -1.1209,1.47685 -1.60132,2.95848 -1.44779,4.45256 0.15594,1.49583 0.83582,2.72881 2.04058,3.7025 1.22867,0.99172 2.56344,1.38115 4.00599,1.16257 1.44383,-0.21771 2.76574,-1.11227 3.96135,-2.68784 0.755,-0.99435 1.24309,-2.0029 1.46847,-3.01994 0.22615,-1.01746 0.16612,-1.99373 -0.17362,-2.92995 -0.34564,-0.93617 -0.92139,-1.73312 -1.73374,-2.38905 -1.1566,-0.93424 -2.4478,-1.34307 -3.87883,-1.22557 -1.43032,0.11418 -2.84612,1.09434 -4.24268,2.93472 l 0,0 z"
            style="fill:#00923f;fill-rule:nonzero;fill-opacity:1" />
         <path id="_136370840" class="fil5"
            d="m 452.37511,154.50788 2.29605,7.22175 7.43181,0 -6.01259,4.4593 2.29754,7.22013 -6.01281,-4.46102 -6.01254,4.46102 2.29748,-7.22013 -6.01275,-4.4593 7.43203,0 2.29578,-7.22175 0,0 z"
            style="fill:#ffffff;fill-rule:nonzero" />
         <path id="_136370152" class="fil5"
            d="m 518.50502,292.41935 1.61114,5.068 5.21551,0 -4.21964,3.12937 1.61243,5.06687 -4.21944,-3.13067 -4.21964,3.13067 1.61242,-5.06687 -4.21937,-3.12937 5.2153,0 1.61129,-5.068 z"
            style="fill:#ffffff;fill-rule:nonzero" />
         <path id="_136369464" class="fil5"
            d="m 498.02972,285.5091 2.29578,7.22191 7.43208,0 -6.0128,4.45931 2.29754,7.22018 -6.0126,-4.46108 -6.0128,4.46108 2.29754,-7.22018 -6.0126,-4.45931 7.43183,0 2.29603,-7.22191 0,0 z"
            style="fill:#ffffff;fill-rule:nonzero" />
         <path id="_136368776" class="fil5"
            d="m 509.50655,312.63812 1.61108,5.06795 5.21552,0 -4.21943,3.12938 1.61221,5.06666 -4.21938,-3.13047 -4.21942,3.13047 1.61219,-5.06666 -4.21942,-3.12938 5.21553,0 1.61112,-5.06795 z"
            style="fill:#ffffff;fill-rule:nonzero" />
         <path id="_136310664" class="fil5"
            d="m 491.51169,316.31441 1.61108,5.068 5.21551,0 -4.21958,3.12954 1.61242,5.06671 -4.21943,-3.13066 -4.21965,3.13066 1.61243,-5.06671 -4.21943,-3.12954 5.2153,0 1.61135,-5.068 z"
            style="fill:#ffffff;fill-rule:nonzero" />
         <path id="_136236080" class="fil5"
            d="m 500.51021,331.01976 1.61129,5.06798 5.21532,0 -4.21943,3.12934 1.61241,5.06691 -4.21959,-3.13066 -4.21942,3.13066 1.61242,-5.06691 -4.21965,-3.12934 5.21553,0 1.61112,-5.06798 z"
            style="fill:#ffffff;fill-rule:nonzero" />
         <path id="_135984016" class="fil5"
            d="m 466.31714,331.01976 1.61114,5.06798 5.21552,0 -4.21943,3.12934 1.61221,5.06691 -4.21944,-3.13066 -4.21942,3.13066 1.61221,-5.06691 -4.21938,-3.12934 5.21525,0 1.61134,-5.06798 z"
            style="fill:#ffffff;fill-rule:nonzero" />
         <path id="_137326544" class="fil5"
            d="m 462.71951,356.75192 1.61129,5.06795 5.2153,0 -4.21936,3.12937 1.61219,5.06688 -4.21942,-3.13068 -4.21943,3.13068 1.61241,-5.06688 -4.21963,-3.12937 5.21551,0 1.61114,-5.06795 z"
            style="fill:#ffffff;fill-rule:nonzero" />
         <path id="_136960808" class="fil5"
            d="m 444.72245,332.85686 1.61112,5.06772 5.21553,0 -4.21964,3.1296 1.61241,5.06665 -4.21942,-3.13045 -4.21938,3.13045 1.61221,-5.06665 -4.21944,-3.1296 5.21532,0 1.61129,-5.06772 z"
            style="fill:#ffffff;fill-rule:nonzero" />
         <path id="_136966272" class="fil5"
            d="m 435.72612,362.26752 1.61134,5.06773 5.21531,0 -4.21943,3.12959 1.61221,5.06665 -4.21943,-3.13045 -4.21937,3.13045 1.61219,-5.06665 -4.21942,-3.12959 5.21553,0 1.61107,-5.06773 0,0 z"
            style="fill:#ffffff;fill-rule:nonzero" />
         <path id="_136960448" class="fil5"
            d="m 417.72911,332.85686 1.61114,5.06772 5.21551,0 -4.21964,3.1296 1.61241,5.06665 -4.21942,-3.13045 -4.21964,3.13045 1.61241,-5.06665 -4.21942,-3.1296 5.21531,0 1.61134,-5.06772 z"
            style="fill:#ffffff;fill-rule:nonzero" />
         <path id="_136959640" class="fil5"
            d="m 460.91847,376.9728 1.61112,5.06799 5.21552,0 -4.21943,3.12938 1.61221,5.06688 -4.21942,-3.13068 -4.21938,3.13068 1.6122,-5.06688 -4.21943,-3.12938 5.2153,0 1.61131,-5.06799 z"
            style="fill:#ffffff;fill-rule:nonzero" />
         <path id="_136959048" class="fil5"
            d="m 378.13934,312.63812 1.61134,5.06795 5.21532,0 -4.21943,3.12938 1.61241,5.06666 -4.21964,-3.13047 -4.21937,3.13047 1.61241,-5.06666 -4.21964,-3.12938 5.21553,0 1.61107,-5.06795 z"
            style="fill:#ffffff;fill-rule:nonzero" />
         <path id="_136958456" class="fil5"
            d="m 354.74519,288.74306 1.61111,5.06793 5.21552,0 -4.21941,3.12939 1.61219,5.06686 -4.21941,-3.13066 -4.21941,3.13066 1.6122,-5.06686 -4.21942,-3.12939 5.21552,0 1.61111,-5.06793 0,0 z"
            style="fill:#ffffff;fill-rule:nonzero" />
         <path id="_136956536" class="fil5"
            d="m 336.74969,318.15151 1.61111,5.068 5.21531,0 -4.21942,3.12933 1.61241,5.06687 -4.21941,-3.13061 -4.21962,3.13061 1.61241,-5.06687 -4.21942,-3.12933 5.21531,0 1.61132,-5.068 z"
            style="fill:#ffffff;fill-rule:nonzero" />
         <path id="_136001272" class="fil5"
            d="m 363.74305,336.5332 1.61112,5.06794 5.21551,0 -4.21964,3.12938 1.61243,5.06686 -4.21942,-3.13066 -4.21964,3.13066 1.61243,-5.06686 -4.21941,-3.12938 5.2153,0 1.61132,-5.06794 z"
            style="fill:#ffffff;fill-rule:nonzero" />
         <path id="_136001112" class="fil5"
            d="m 415.93026,228.08468 1.61135,5.06794 5.2153,0 -4.21942,3.12959 1.61242,5.06666 -4.21965,-3.13046 -4.21937,3.13046 1.61242,-5.06666 -4.21964,-3.12959 5.21552,0 1.61107,-5.06794 z"
            style="fill:#ffffff;fill-rule:nonzero" />
         <path id="_136399128" class="fil5"
            d="m 307.95664,250.14045 1.61132,5.06799 5.2153,0 -4.21941,3.12933 1.6122,5.06692 -4.21941,-3.13066 -4.21942,3.13066 1.6122,-5.06692 -4.21941,-3.12933 5.21551,0 1.61112,-5.06799 0,0 z"
            style="fill:#ffffff;fill-rule:nonzero" />
         <path id="_136984904" class="fil5"
            d="m 280.96327,263.00874 1.61112,5.06793 5.21551,0 -4.21941,3.12939 1.6122,5.06686 -4.21942,-3.13066 -4.21941,3.13066 1.6122,-5.06686 -4.21941,-3.12939 5.21551,0 1.61111,-5.06793 z"
            style="fill:#ffffff;fill-rule:nonzero" />
         <path id="_136398560" class="fil5"
            d="m 268.36645,283.22746 1.6111,5.068 5.21553,0 -4.21964,3.12932 1.61242,5.06687 -4.21941,-3.13062 -4.21964,3.13062 1.61243,-5.06687 -4.21943,-3.12932 5.21532,0 1.61132,-5.068 z"
            style="fill:#ffffff;fill-rule:nonzero" />
         <path id="_136398040" class="fil5"
            d="m 268.36645,314.47517 1.6111,5.068 5.21553,0 -4.21964,3.12954 1.61242,5.06671 -4.21941,-3.13046 -4.21964,3.13046 1.61243,-5.06671 -4.21943,-3.12954 5.21532,0 1.61132,-5.068 z"
            style="fill:#ffffff;fill-rule:nonzero" />
         <path id="_137187424" class="fil5"
            d="m 302.55796,310.79883 1.61133,5.068 5.2153,0 -4.21942,3.12937 1.6122,5.06688 -4.21941,-3.13068 -4.21941,3.13068 1.61219,-5.06688 -4.21941,-3.12937 5.21553,0 1.6111,-5.068 0,0 z"
            style="fill:#ffffff;fill-rule:nonzero" />
         <path id="_136400824" class="fil5"
            d="m 298.95877,334.69389 1.61133,5.068 5.2153,0 -4.21941,3.12954 1.61242,5.06671 -4.21964,-3.13045 -4.21941,3.13045 1.61241,-5.06671 -4.21962,-3.12954 5.21551,0 1.61111,-5.068 0,0 z"
            style="fill:#ffffff;fill-rule:nonzero" />
         <path id="_136964936" class="fil5"
            d="m 325.95235,343.88583 1.61111,5.068 5.2153,0 -4.21941,3.12954 1.61241,5.06666 -4.21941,-3.1304 -4.21963,3.1304 1.61241,-5.06666 -4.21941,-3.12954 5.2153,0 1.61133,-5.068 z"
            style="fill:#ffffff;fill-rule:nonzero" />
         <path id="_136980000" class="fil5"
            d="m 244.97206,233.22978 2.14749,6.7549 6.95141,0 -5.62407,4.17102 2.14903,6.7534 -5.62386,-4.17259 -5.62407,4.17259 2.14901,-6.7534 -5.62407,-4.17102 6.95164,0 2.14749,-6.7549 z"
            style="fill:#ffffff;fill-rule:nonzero" />
         <path id="_136977696" class="fil5"
            d="m 358.54583,314.46428 0.82013,2.57996 2.65514,0 -2.14793,1.593 0.8208,2.57958 -2.14814,-1.59391 -2.14794,1.59391 0.8208,-2.57958 -2.14814,-1.593 2.65512,0 0.82016,-2.57996 z"
            style="fill:#ffffff;fill-rule:nonzero" />
         <path id="_136922720" class="fil5"
            d="m 350.14859,325.90082 0.82014,2.57994 2.65513,0 -2.14814,1.59323 0.82079,2.5793 -2.14792,-1.59364 -2.14814,1.59364 0.8208,-2.5793 -2.14793,-1.59323 2.65491,0 0.82036,-2.57994 z"
            style="fill:#ffffff;fill-rule:nonzero" />
         <path id="_136922392" class="fil5"
            d="m 358.54583,385.94247 0.82013,2.57994 2.65514,0 -2.14793,1.59323 0.8208,2.5793 -2.14814,-1.59365 -2.14794,1.59365 0.8208,-2.5793 -2.14814,-1.59323 2.65512,0 0.82016,-2.57994 z"
            style="fill:#ffffff;fill-rule:nonzero" />
      </g>
   </g>
</svg>