<svg xmlns="http://www.w3.org/2000/svg" width="18.442" height="16" viewBox="0 0 13.832 12">
  <path fill="none" stroke="#000000" stroke-width=".6" stroke-linecap="round" stroke-linejoin="round" stroke-opacity="1"
    stroke-miterlimit="10" stroke-dasharray="none" transform="translate(0 -.75)"
    d="M6 3.776a2.223 2.223 0 1 0 0 4.448 2.223 2.223 0 1 0 0-4.448zM4.796 7.573c-.45.346-.958.651-1.573.651A2.223 2.223 0 0 1 1 6c0-1.23.995-2.224 2.224-2.224.615 0 1.123.305 1.573.651C5.32 4.83 6 6 6 6s-.68 1.17-1.203 1.573zm2.406 0c.45.346.958.651 1.573.651a2.223 2.223 0 0 0 1.573-3.797 2.217 2.217 0 0 0-1.573-.651c-.615 0-1.123.305-1.573.651C6.68 4.83 6 6 6 6s.68 1.17 1.203 1.573zm3.146-3.146 2.483-2.483m-1.77 0h1.77v1.77m-9.608 7.76v-3.25m-1.25 1.625h2.5" />
</svg>