<svg xmlns="http://www.w3.org/2000/svg" width="16" height="16" viewBox="0 0 12 12">
  <path
    style="fill:none;stroke:#000;stroke-width:.60000002;stroke-linecap:round;stroke-linejoin:round;stroke-miterlimit:10;stroke-dasharray:none;stroke-opacity:1"
    transform="translate(-1 -.75)"
    d="M7 6c0-.69-.28-1.314-.733-1.767A2.49 2.49 0 0 0 4.501 3.5a2.501 2.501 0 0 0-.001 5C5.88 8.5 7 7.379 7 6Zm-2.5 5.75V8.5m-1.25 1.75h2.5m3.768-6.017L12 1.75m-1.77 0H12v1.77M10.251 6c0-.69-.28-1.314-.733-1.767A2.502 2.502 0 0 0 5.25 6c0 1.379 1.12 2.5 2.5 2.5 1.379 0 2.5-1.121 2.5-2.5z" />
</svg>