<svg width="20.335" height="16" viewBox="0 0 15.251 12" xmlns="http://www.w3.org/2000/svg">
  <path
    style="fill:none;stroke:#000;stroke-width:.60000002;stroke-linecap:round;stroke-linejoin:round;stroke-miterlimit:10;stroke-dasharray:none;stroke-opacity:1"
    d="M9.25 5.25c0-.69-.28-1.315-.732-1.767A2.492 2.492 0 0 0 6.75 2.75c-1.378 0-2.5 1.12-2.5 2.5s1.122 2.5 2.5 2.5 2.5-1.121 2.5-2.5zm-.732-1.767L11 .999M9.23 1h1.77v1.77M6 5.249c0-.689-.28-1.314-.733-1.766A2.492 2.492 0 0 0 3.5 2.75C2.12 2.75 1 3.87 1 5.25s1.12 2.5 2.5 2.5c1.379 0 2.5-1.121 2.5-2.5zM3.5 11V7.75M2.25 9.375h2.5M12.5 6.75c0-.69-.28-1.315-.733-1.767A2.492 2.492 0 0 0 10 4.25c-1.379 0-2.5 1.12-2.5 2.5s1.121 2.5 2.5 2.5 2.5-1.121 2.5-2.5zm-.733-1.767 2.483-2.484m-1.77 0h1.77v1.77" />
</svg>