<svg xmlns="http://www.w3.org/2000/svg" width="24.667" height="16" viewBox="0 0 18.5 12">
  <path fill="none" stroke="#FFFFFF" stroke-width=".6" stroke-linecap="round" stroke-linejoin="round" stroke-opacity="1"
    stroke-miterlimit="10" stroke-dasharray="none" transform="translate(0 -1.5)"
    d="M6 5.25c0-.69-.28-1.315-.733-1.767A2.492 2.492 0 0 0 3.5 2.75C2.12 2.75 1 3.87 1 5.25s1.12 2.5 2.5 2.5c1.379 0 2.5-1.121 2.5-2.5zM3.5 11V7.75M2.25 9.375h2.5M12.5 6.75c0-.69-.28-1.315-.733-1.767A2.492 2.492 0 0 0 10 4.25c-1.379 0-2.5 1.12-2.5 2.5s1.121 2.5 2.5 2.5c1.38 0 2.5-1.121 2.5-2.5zm-.733-1.767 2.484-2.484m-1.77 0h1.77v1.77m-5.002 2.48c0-.689-.28-1.314-.732-1.766a2.492 2.492 0 0 0-1.768-.733c-1.378 0-2.5 1.12-2.5 2.5s1.122 2.5 2.5 2.5 2.5-1.121 2.5-2.5zM6.75 12.5V9.25M5.5 10.875H8m7.75-2.625c0-.69-.28-1.315-.732-1.767a2.492 2.492 0 0 0-1.767-.733c-1.38 0-2.5 1.12-2.5 2.5s1.12 2.5 2.5 2.5c1.379 0 2.5-1.121 2.5-2.5zm-.732-1.767L17.5 3.999m-1.77 0h1.77v1.77" />
</svg>