<svg xmlns="http://www.w3.org/2000/svg" width="16" height="16" viewBox="0 0 12 12">
  <path fill="none" stroke="#ffffff" stroke-width=".6" stroke-linecap="round" stroke-linejoin="round" stroke-opacity="1"
    stroke-miterlimit="10" stroke-dasharray="none" transform="translate(1.5)"
    d="M8.5 3.5C8.5 2.121 7.379 1 6 1a2.502 2.502 0 0 0-2.5 2.5C3.5 4.879 4.621 6 6 6s2.5-1.121 2.5-2.5ZM6 11V6M.5 8.5h8m-3-5C5.5 2.121 4.379 1 3 1A2.502 2.502 0 0 0 .5 3.5C.5 4.879 1.621 6 3 6s2.5-1.121 2.5-2.5ZM3 11V6" />
</svg>