<?xml version="1.0" encoding="UTF-8"?><svg xmlns:xlink="http://www.w3.org/1999/xlink" xmlns="http://www.w3.org/2000/svg" viewBox="0 0 648 432"><path fill="#fff" d="M0 0h648v432H0z"/><path id="a" d="M0 0h648v72H0z"/><use y="144" xlink:href="#a"/><use y="288" xlink:href="#a"/><path fill="#750787" d="M54 360 270 144V360l-54 72H0Z"/><path fill="#750787" d="M594 360 378 144V360l54 72H648Z"/><path fill="#004dff" d="M108 288 324 216 540 288l54 72h-216l-54-72-54 72h-216z"/><path fill="#008026" d="M162 216 324 144 486 216l54 72H108z"/><path fill="#ffed00" d="M216 144 324 72 432 144l54 72H162z"/><path fill="#ff8c00" d="M270 72 324 36 378 72l54 72H216z"/><path fill="#e40303" d="M270 72l54-72 54 72z"/></svg>